<svg width="553" height="556" viewBox="0 0 553 556" fill="none" xmlns="http://www.w3.org/2000/svg">
<path d="M161.848 162.034C161.513 160.774 160.284 159.2 159.082 158.518L151.79 154.452C150.589 153.796 148.494 153.087 147.125 152.878L138.743 151.618C137.374 151.408 135.809 150.254 135.251 149.073L134.245 146.922C133.686 145.742 132.149 144.43 130.836 144.01L126.562 142.672C125.249 142.252 123.377 141.177 122.399 140.232L119.046 137.058C118.068 136.14 116.141 135.379 114.744 135.379H90.4651C89.0682 135.379 87.5595 134.382 87.0566 133.149L85.7994 129.974C85.3244 128.768 83.8437 127.403 82.5306 126.984L77.3619 125.305C76.0488 124.885 74.7357 123.494 74.4284 122.209L74.2608 121.553C73.9534 120.294 72.6962 118.746 71.4669 118.116L64.7058 114.679C63.4765 114.05 62.9736 112.607 63.5603 111.426L65.7116 107.202C66.2983 106.022 67.8908 104.815 69.2598 104.526L81.1616 101.955C82.5026 101.667 84.3186 102.27 85.1847 103.293L86.8052 105.235C87.6713 106.258 89.4593 106.835 90.8004 106.52L92.812 106.048C94.153 105.733 95.4661 104.421 95.7176 103.136L96.0808 101.299C96.3322 100.014 97.4777 98.3874 98.6232 97.6528L115.582 86.9227C116.727 86.1881 117.398 84.5615 117.035 83.3022L115.275 76.9534C114.939 75.6941 115.777 74.6709 117.174 74.6972L142.738 75.0382C144.135 75.0644 145.169 74.015 145.057 72.7033L144.163 61.6321C144.051 60.3466 142.878 59.0086 141.537 58.6675L139.944 58.274C138.603 57.933 137.374 56.595 137.234 55.3095L136.927 52.7384C136.787 51.4529 135.502 50.4297 134.133 50.5085L121.477 51.0856C120.08 51.1381 118.488 52.1613 117.873 53.3418L116.56 55.9391C115.973 57.1197 114.381 57.8805 113.012 57.6444L104.155 56.0965C102.786 55.8604 101.78 54.6011 101.92 53.3156L102.283 49.9313C102.423 48.6458 103.596 47.2028 104.909 46.7568L111.838 44.3432C113.151 43.8972 114.688 42.5592 115.303 41.4049L121.281 29.8615C121.896 28.6809 121.253 27.7364 119.857 27.7364H88.7609C87.364 27.7364 85.4083 28.471 84.4025 29.363L80.7425 32.5899C79.7367 33.4819 77.781 34.1116 76.412 33.9804L10.7005 27.9726C9.33149 27.8414 8.35364 28.7858 8.52127 30.0976L10.002 40.3817C10.1976 41.6672 9.1918 42.7166 7.82281 42.7166H2.51448C1.11755 42.7166 3.8147e-06 43.7923 3.8147e-06 45.0778V52.0826C3.8147e-06 53.3943 0.949915 55.0209 2.12334 55.703L6.06268 58.0379C7.2361 58.7463 9.33149 59.2972 10.7005 59.2972H13.4105C14.8075 59.2972 15.9809 58.2215 16.0647 56.936L16.2044 54.365C16.2882 53.0532 17.4896 52.0826 18.8585 52.1613L34.0851 53.0795C35.482 53.1582 37.298 54.0764 38.1362 55.0996L42.3828 60.2679C43.221 61.291 43.7518 63.2062 43.5563 64.4917L42.5505 71.1554C42.3549 72.4409 41.0697 73.7002 39.7287 73.9363L35.6217 74.6709C34.2527 74.907 33.1352 76.1663 33.1072 77.4781L32.744 102.296C32.7161 103.608 33.5263 105.392 34.5321 106.31L42.9695 113.945C43.9753 114.837 44.59 116.647 44.3665 117.932L43.8915 120.556C43.668 121.841 44.562 123.179 45.9031 123.521L63.0294 127.928C64.3705 128.269 65.7954 129.581 66.1865 130.814L66.9129 133.096C67.3041 134.356 68.7569 135.353 70.1538 135.353H72.8638C74.2608 135.353 75.5739 136.402 75.8253 137.687L76.2444 139.97C76.4958 141.255 77.809 142.305 79.2059 142.305H83.6481C85.045 142.305 86.3582 143.354 86.6096 144.64L87.4757 149.283C87.7272 150.569 86.7772 151.618 85.3803 151.618H84.8215C83.4246 151.618 82.1674 152.668 82.0277 153.979L80.8822 163.45C80.7146 164.736 81.4689 166.467 82.5306 167.307L90.7166 173.603C91.7783 174.417 92.6723 176.174 92.6723 177.46V186.904C92.6723 188.216 93.5663 189.921 94.6559 190.708L100.16 194.696C101.249 195.483 102.227 197.215 102.339 198.5L104.993 234.259C105.077 235.544 106.083 237.249 107.172 238.036L110.05 240.057C111.168 240.844 112.062 242.549 112.062 243.834V253.279C112.062 254.591 113.095 256.06 114.381 256.558L125.249 260.808C126.534 261.307 127.847 260.677 128.182 259.418L129.97 252.676C130.306 251.416 129.691 249.711 128.601 248.924L126.534 247.402C125.444 246.589 124.634 244.884 124.718 243.572L126.115 223.607C126.199 222.295 127.065 220.485 128.043 219.567L149.527 199.051C150.505 198.133 151.287 196.297 151.287 194.985V184.727C151.287 183.415 152.07 181.579 153.02 180.634L162.072 171.531C163.022 170.586 163.525 168.776 163.217 167.49L161.848 162.034ZM131.451 31.2782C132.122 32.4063 132.373 34.3739 132.01 35.6332L130.138 42.0345C129.775 43.2938 130.585 44.4744 131.954 44.6843L138.492 45.655C139.861 45.8649 141.816 45.3139 142.822 44.4219L143.437 43.8972C144.442 43.0052 145.281 41.2212 145.281 39.9095V36.0005C145.281 34.6887 144.247 33.2196 142.962 32.6949L138.072 30.701C136.815 30.1763 136.201 28.7858 136.759 27.579L137.206 26.5821C137.765 25.3753 139.274 24.0635 140.587 23.6175L155.171 18.8428C156.484 18.423 158.3 17.2687 159.222 16.2717L160.2 15.2223C161.122 14.2516 161.541 12.4152 161.122 11.1821L160.731 9.94909C160.34 8.68981 158.998 8.16511 157.769 8.79475L149.946 12.6513C148.717 13.2547 146.594 13.7269 145.197 13.7007L131.507 13.4908C130.11 13.4646 128.657 14.4878 128.294 15.7208L126.925 20.102C126.534 21.3613 126.757 23.3027 127.428 24.4571L131.451 31.2782ZM201.8 16.0356L179.338 10.5787C177.997 10.2639 176.013 10.6574 174.923 11.4707L163.832 19.761C162.742 20.5743 160.787 21.5712 159.473 21.9647L151.986 24.2472C150.673 24.6407 149.583 26.0049 149.583 27.2904C149.583 28.576 150.729 29.5991 152.098 29.5991H155.953C157.35 29.5991 158.188 30.6223 157.853 31.8816L154.64 43.7398C154.305 44.9991 154.417 47.0454 154.892 48.2522L157.629 55.3357C158.104 56.5687 159.613 57.5657 161.01 57.5657H163.636C165.033 57.5657 166.737 56.6474 167.464 55.5456L176.488 41.6935C177.214 40.5916 178.891 39.3586 180.204 38.965L201.8 32.5899C203.113 32.1964 204.203 30.8059 204.203 29.5204V18.9739C204.231 17.6884 203.141 16.3504 201.8 16.0356ZM223.313 44.0284L225.492 40.854C226.247 39.7521 225.8 38.4666 224.514 37.9943L220.296 36.4202C219.011 35.948 217.39 36.4727 216.72 37.6008L215.183 40.1456C214.512 41.2737 214.959 42.6904 216.189 43.2938L219.709 44.9729C220.938 45.55 222.559 45.1303 223.313 44.0284ZM242.73 65.6723C243.513 66.7479 244.798 66.7217 245.58 65.6461L246.334 64.5704C247.089 63.4948 246.921 61.842 245.943 60.9238L244.155 59.2447C243.177 58.3265 241.781 58.4839 241.054 59.5858L241.026 59.6382C240.3 60.7401 240.356 62.5241 241.166 63.5997L242.73 65.6723ZM251.699 71.6276H251.922C253.319 71.6276 255.051 70.7357 255.834 69.6338L256.756 68.322C257.51 67.2202 258.097 65.2788 258.041 63.967L257.678 55.6768C257.622 54.365 256.56 53.7616 255.303 54.3125L254.018 54.8897C252.76 55.4406 251.727 56.9623 251.727 58.274V61.0549C251.727 62.3667 251.168 64.0982 250.469 64.9377C249.771 65.7772 249.212 67.5088 249.212 68.8205V69.2665C249.184 70.552 250.302 71.6276 251.699 71.6276ZM552.653 46.5994L548.546 40.5654C547.792 39.4635 546.06 38.6502 544.663 38.7289L521.837 40.0931C520.44 40.1719 518.54 39.4635 517.59 38.519L512.17 33.1671C511.22 32.2226 509.32 31.2782 507.951 31.0421L476.185 25.9C474.816 25.6901 472.581 25.7163 471.24 25.9787L446.235 30.9634C444.866 31.2257 442.854 30.8059 441.765 30.0189L429.5 21.3351C428.382 20.548 426.343 19.9184 424.974 19.9184H377.562C376.165 19.9184 374.098 20.4956 372.924 21.2039L365.297 25.8475C364.124 26.5559 363.202 28.2087 363.257 29.4942L363.425 36.1841C363.453 37.4959 362.391 38.2829 361.05 37.9681L352.892 36.0529C351.551 35.7381 349.735 36.3153 348.869 37.3385L343.114 44.1333C342.248 45.1565 340.404 45.996 339.035 45.996H323.92C322.523 45.996 320.791 45.104 320.036 44.0022L314.449 35.7381C313.694 34.6363 312.018 33.4032 310.705 32.9834L304.503 30.9896C303.19 30.5698 301.038 30.5698 299.753 31.0158L284.638 36.1054C283.325 36.5514 281.509 37.7058 280.615 38.6765L271.479 48.4621C270.557 49.4328 270.529 51.0594 271.395 52.0826L274.497 55.703C275.363 56.7262 277.207 57.5394 278.604 57.5394H284.471C285.868 57.5394 287.712 56.7262 288.606 55.7292L295.73 47.8062C296.624 46.8093 298.468 46.2059 299.809 46.4945L300.815 46.7044C302.184 46.9667 303.189 48.2522 303.05 49.564L302.91 50.9544C302.77 52.24 303.553 53.9977 304.586 54.8372L304.614 54.8635C305.676 55.703 305.536 56.9098 304.307 57.5394L301.625 58.9037C300.396 59.5333 299.278 61.0812 299.138 62.3929L298.803 65.2788C298.663 66.5643 297.406 67.6924 296.009 67.7449L278.576 68.5319C277.179 68.5844 275.754 67.6137 275.391 66.3806L274.916 64.7541C274.552 63.4948 273.1 62.4716 271.731 62.4716H269.076C267.68 62.4716 266.087 63.4423 265.5 64.6229L263.154 69.4764C262.567 70.657 261.058 72.0212 259.745 72.4672L258.823 72.8082C257.538 73.2805 255.75 74.4873 254.884 75.4842L252.732 77.9503C251.866 78.9472 251.615 80.7574 252.202 81.938L253.934 85.4273C254.521 86.6078 253.878 87.7097 252.509 87.8934L246.251 88.6804C244.882 88.8378 244.016 90.0184 244.323 91.3039L245.832 97.2855C246.139 98.5448 247.508 99.8303 248.877 100.119L255.694 101.562C257.035 101.85 258.153 101.011 258.153 99.7254V97.784C258.153 96.4722 259.13 94.8719 260.304 94.1898L265.305 91.3564C266.478 90.6743 268.574 90.2808 269.943 90.4644L275.027 91.1727C276.396 91.3564 278.045 92.4583 278.687 93.6126L280.811 97.4691C281.453 98.6235 281.286 100.434 280.448 101.457L279.917 102.113C279.079 103.162 279.106 104.841 279.973 105.864L280.392 106.337C281.258 107.36 282.822 107.491 283.884 106.651L287.739 103.582C288.801 102.742 289.164 101.09 288.55 99.9352L285.476 94.1373C284.862 92.983 285.281 91.4089 286.398 90.648L287.656 89.8085C288.773 89.0477 290.338 89.3101 291.092 90.3857L296.596 98.125C297.378 99.2007 299.055 99.7254 300.368 99.2794L306.291 97.2593C307.604 96.8133 309.42 97.2593 310.314 98.23L317.941 106.363C318.863 107.334 319.338 109.17 319.031 110.429L318.416 112.79C318.081 114.05 316.712 115.309 315.371 115.571L296.009 119.349C294.64 119.612 292.489 119.454 291.176 119.008L284.052 116.49C282.766 116.044 281.006 114.811 280.14 113.787L275.223 107.806C274.385 106.783 272.541 105.996 271.172 106.1L258.432 106.888C257.035 106.966 255.051 107.727 253.962 108.54L228.817 127.823C227.755 128.636 226.722 130.368 226.554 131.68L225.716 137.845C225.548 139.13 224.57 140.914 223.537 141.78L221.916 143.171C220.882 144.063 220.156 145.82 220.24 147.132L221.022 156.76C221.134 158.046 222.084 159.804 223.173 160.617L236.165 170.691C237.227 171.531 239.238 172.187 240.635 172.187H263.74C265.137 172.187 267.121 172.869 268.182 173.734L272.345 177.066C273.407 177.906 274.329 179.663 274.385 180.975L274.72 187.665C274.776 188.977 275.81 190.604 276.983 191.286L283.66 195.195C284.834 195.877 285.728 197.503 285.616 198.815L283.884 221.928C283.8 223.214 284.582 224.945 285.672 225.758L290.617 229.484C291.707 230.297 292.517 232.029 292.461 233.314L291.511 251.679C291.455 252.99 292.517 254.119 293.914 254.223L307.548 255.247C308.917 255.352 310.873 254.669 311.85 253.751L326.071 240.398C327.049 239.479 327.859 237.669 327.859 236.357V222.715C327.859 221.403 328.725 219.672 329.815 218.859L338.644 212.116C339.705 211.303 340.711 209.571 340.823 208.26L342.443 191.548C342.583 190.262 343.421 188.4 344.343 187.403L360.855 169.799C361.777 168.828 362.531 166.966 362.531 165.654V158.702C362.531 157.39 361.386 156.341 360.017 156.367L339.286 156.603C337.889 156.629 336.716 155.554 336.66 154.268L336.297 147.158C336.241 145.847 335.319 144.115 334.257 143.276L329.508 139.524C328.446 138.684 327.496 136.927 327.384 135.641L326.909 130.342C326.798 129.056 327.803 127.744 329.144 127.43L334.313 126.275C335.654 125.987 337.582 126.485 338.588 127.377L345.628 133.752C346.634 134.644 347.388 136.454 347.305 137.766L346.718 147.289C346.634 148.601 347.64 149.992 348.953 150.411L352.166 151.408C353.479 151.828 355.295 151.33 356.189 150.333L366.889 138.37C367.784 137.373 367.616 135.877 366.554 135.064L356.86 127.744C355.77 126.931 355.63 125.436 356.524 124.439L359.514 121.107C360.408 120.11 362.224 119.533 363.593 119.848L366.107 120.425C367.448 120.74 369.097 121.92 369.767 123.048L372.393 127.535C373.064 128.689 374.74 129.633 376.137 129.66L384.128 129.843C385.525 129.869 386.642 130.971 386.642 132.257V138.107C386.642 139.419 387.76 140.573 389.157 140.704L396.281 141.36C397.65 141.492 398.572 142.646 398.32 143.905L396.588 152.615C396.337 153.901 396.84 155.763 397.734 156.76L407.875 168.409C408.741 169.406 410.613 170.245 411.982 170.245H413.77C415.167 170.245 416.732 169.274 417.291 168.068L430.422 139.157C430.953 137.95 432.545 136.979 433.942 136.979H435.423C436.82 136.979 438.72 137.766 439.669 138.711L447.464 146.502C448.414 147.447 449.197 149.283 449.197 150.595V159.463C449.197 160.774 449.895 162.663 450.733 163.713L455.371 169.379C456.209 170.403 457.718 170.507 458.696 169.589L460.121 168.278C461.098 167.359 461.07 165.916 460.009 165.077L457.913 163.372C456.852 162.532 456.097 160.774 456.237 159.463L456.349 158.361C456.489 157.075 457.718 156 459.115 156H459.422C460.819 156 462.356 156.996 462.831 158.203L463.389 159.594C463.892 160.801 465.261 161.247 466.435 160.564L472.218 157.233C473.391 156.55 474.369 154.924 474.369 153.638V146.371C474.369 145.06 473.391 143.459 472.19 142.803L469.117 141.098C467.915 140.442 467.133 138.842 467.357 137.556L468.335 131.785C468.558 130.499 469.871 129.581 471.24 129.712L478.085 130.447C479.454 130.604 481.074 129.764 481.633 128.558L486.327 119.008C486.914 117.828 486.662 116.044 485.796 115.02L480.376 108.698C479.51 107.675 478.979 105.812 479.231 104.526L480.46 97.8102C480.683 96.5247 482.024 95.4753 483.393 95.4753H488.143C489.54 95.4753 490.602 94.3997 490.546 93.1141L489.009 64.859C488.925 63.5473 489.791 61.842 490.881 61.0549L496.077 57.3033C497.167 56.5163 499.207 55.9391 500.576 56.044L514.21 57.0672C515.579 57.1721 516.808 58.3265 516.892 59.612L517.758 71.8375C517.842 73.1493 518.959 74.6447 520.216 75.1694L522.452 76.1138C523.709 76.6648 525.189 76.1138 525.72 74.907L533.264 58.0379C533.795 56.8311 535.219 55.3095 536.421 54.6536L545.11 49.8263C546.311 49.1705 548.406 48.6195 549.803 48.6195H551.591C552.877 48.5933 553.407 47.7013 552.653 46.5994ZM500.268 105.576C499.765 106.783 499.71 108.776 500.156 110.009L501.637 114.076C502.084 115.309 503.593 116.411 504.962 116.516L506.61 116.647C507.979 116.752 509.739 115.965 510.522 114.863L513.511 110.665C514.293 109.59 514.908 107.622 514.908 106.337V92.0123C514.908 90.7005 514.154 88.8378 513.26 87.8671L510.801 85.2436C509.879 84.2729 508.063 83.8007 506.75 84.2467L504.85 84.8763C503.537 85.2961 502.922 86.6341 503.509 87.8147L504.766 90.4382C505.325 91.6187 505.381 93.5864 504.878 94.7932L500.268 105.576ZM358.508 209.152L357.865 208.758C356.692 208.05 355.044 208.338 354.177 209.362L343.952 221.666C343.086 222.689 342.834 224.499 343.393 225.706L344.986 229.248C345.516 230.455 347.081 231.609 348.45 231.845L349.26 231.976C350.629 232.212 352.669 231.793 353.814 231.058L358.592 227.91C359.737 227.149 360.659 225.496 360.659 224.184V212.772C360.631 211.487 359.681 209.86 358.508 209.152ZM459.618 189.554H466.127C467.524 189.554 468.642 188.478 468.642 187.193V184.517C468.642 183.205 467.496 182.13 466.127 182.13L461.825 182.077C460.428 182.051 459.059 181.001 458.752 179.742L458.081 176.909C457.774 175.65 456.516 174.154 455.259 173.603L448.275 170.507C447.017 169.957 445.397 170.403 444.643 171.504L444.223 172.134C443.497 173.236 443.19 175.151 443.581 176.41L445.313 182.103C445.704 183.363 447.017 184.858 448.247 185.435L454.84 188.531C456.097 189.082 458.249 189.554 459.618 189.554ZM494.681 182.235L492.669 178.352C492.054 177.171 490.574 176.725 489.344 177.329L482.024 180.949C480.795 181.552 480.432 182.943 481.214 184.019L482.611 185.96C483.393 187.036 485.126 188.216 486.439 188.583L496.944 191.443C498.285 191.81 500.268 191.548 501.358 190.84C502.447 190.158 502.447 188.951 501.33 188.19L497.838 185.803C496.692 184.989 495.267 183.415 494.681 182.235ZM501.106 237.013L504.655 231.635C505.381 230.533 506.08 228.566 506.163 227.254L507.113 215.291C507.225 214.005 506.75 211.985 506.08 210.857L498.285 197.477C497.614 196.323 495.966 195.641 494.625 195.955L493.982 196.113C492.641 196.428 491.524 197.739 491.524 199.025V199.314C491.524 200.625 490.685 201.675 489.624 201.675C488.562 201.675 486.969 200.888 486.048 199.917L485.628 199.471C484.706 198.5 482.835 197.897 481.466 198.107L473.308 199.392C471.939 199.602 470.234 200.704 469.536 201.832L467.217 205.479C466.518 206.607 464.87 207.919 463.613 208.417L454.477 212.011C453.192 212.51 452.158 213.979 452.158 215.291V234.364C452.158 235.675 453.164 237.249 454.365 237.879H454.393C455.622 238.509 457.662 238.666 458.975 238.246L463.11 236.882C464.423 236.462 465.82 235.072 466.239 233.839L466.295 233.708C466.714 232.475 468.167 231.242 469.536 230.979L474.369 230.087C475.738 229.825 477.526 230.481 478.364 231.53L482.89 237.144C483.729 238.194 485.545 239.033 486.942 239.033H497.251C498.648 239.007 500.38 238.115 501.106 237.013ZM514.908 242.444L514.21 241.919C513.12 241.106 511.5 241.263 510.606 242.26L508.985 244.07C508.091 245.067 506.303 246.248 504.99 246.668L501.078 247.98C499.765 248.426 499.011 249.79 499.402 251.049L499.765 252.23C500.157 253.489 501.581 254.302 502.95 254.04L506.666 253.358C508.035 253.095 509.544 252.203 510.019 251.364C510.522 250.524 511.947 249.58 513.232 249.291C514.517 249.003 515.858 247.743 516.193 246.484L516.277 246.143C516.612 244.936 515.998 243.257 514.908 242.444ZM525.217 229.615C524.547 229.615 523.29 229.379 522.452 229.09C521.585 228.802 520.3 229.484 519.602 230.586L518.205 232.789C517.478 233.918 517.674 235.623 518.596 236.567L519.211 237.223C520.133 238.194 521.753 238.273 522.787 237.433L527.005 233.97C528.039 233.104 528.347 231.766 527.676 231.005C527.005 230.271 525.888 229.615 525.217 229.615Z" fill="#DADADA"/>
<path d="M412.323 43.2171L409.602 37.3287C409.255 36.552 408.294 36.2012 407.467 36.5269L401.196 39.0827C400.796 39.233 400.342 39.2581 399.942 39.1077L393.591 36.7524C392.764 36.4517 391.803 36.8276 391.483 37.6043L388.975 43.5679C388.815 43.9437 388.495 44.2444 388.121 44.3947L381.85 46.9505C381.023 47.2763 380.65 48.1783 380.996 48.9551L383.718 54.8434C383.878 55.2193 383.905 55.6452 383.745 56.0211L381.237 61.9846C380.916 62.7614 381.317 63.6634 382.144 63.9641L388.495 66.3194C388.895 66.4698 389.215 66.7704 389.375 67.1212L392.097 73.0096C392.444 73.7863 393.404 74.1371 394.232 73.8114L400.502 71.2556C400.903 71.1053 401.356 71.0802 401.756 71.2305L408.107 73.5859C408.934 73.8866 409.895 73.5107 410.215 72.734L412.724 66.7704C412.884 66.3946 413.204 66.0939 413.577 65.9436L419.848 63.3878C420.675 63.062 421.049 62.16 420.702 61.3832L417.98 55.4949C417.82 55.119 417.793 54.6931 417.954 54.3172L420.462 48.3537C420.782 47.5769 420.382 46.6749 419.555 46.3742L413.204 44.0189C412.83 43.8685 412.51 43.5929 412.323 43.2171Z" fill="#F4B503"/>
<path d="M402.128 63.9237C407.286 63.2881 410.919 58.8465 410.242 54.0031C409.565 49.1596 404.835 45.7484 399.677 46.3839C394.519 47.0195 390.886 51.4611 391.563 56.3045C392.24 61.148 396.97 64.5592 402.128 63.9237Z" fill="#F9CD15"/>
<path d="M471.188 100.547C469.507 93.5813 462.889 88.3695 454.937 88.3444C450.535 88.3194 446.532 89.8979 443.517 92.5038C439.381 85.9891 431.829 81.6292 423.184 81.6041C413.978 81.554 405.973 86.4401 401.997 93.6063C400.075 92.5038 397.807 91.8524 395.379 91.8273C389.642 91.8023 384.786 95.3102 383.131 100.196L471.188 100.547Z" fill="white"/>
<path d="M170.788 474.601C170.788 474.601 224.001 411.305 255.632 411.512C287.282 411.719 321.755 453.198 366.771 488.634C417.234 528.341 351.35 530.011 347.536 530.338C343.74 530.665 212.523 526.309 210.341 524.174C208.158 522.039 173.117 494.575 173.117 494.575L170.788 474.601Z" fill="#C5DDF9"/>
<path d="M443.779 476.51H446.034V453.11H443.779V476.51Z" fill="#355389"/>
<path d="M444.923 407.707L452.258 463.392H437.588L444.923 407.707Z" fill="#3C8F7C"/>
<path d="M449.598 443.194L439.128 451.631L439.531 448.566L449.268 440.731L449.598 443.194Z" fill="#50BFA5"/>
<path d="M447.984 430.986L441.585 433.052L441.878 430.762L447.709 428.885L447.984 430.986Z" fill="#50BFA5"/>
<path d="M137.581 435.291L144.145 485.018H131.034L137.581 435.291Z" fill="#3C8F7C"/>
<path d="M149.133 442.609L154.12 480.473H144.145L149.133 442.609Z" fill="#3C8F7C"/>
<path d="M159.107 453.869L164.095 491.75H154.12L159.107 453.869Z" fill="#3C8F7C"/>
<path d="M125.332 446.397L131.878 496.125H118.768L125.332 446.397Z" fill="#3C8F7C"/>
<path d="M150.105 461.859C206.949 470.744 292.233 550.553 357.182 550.553C422.13 550.553 436.121 531.457 460.491 535.504C484.842 539.533 517.555 550.553 517.555 550.553L34.8397 551.896C34.8397 551.896 93.2606 452.992 150.105 461.859Z" fill="#86B1F2"/>
<path d="M355.843 438.615L362.408 488.325H349.297L355.843 438.615Z" fill="#3C8F7C"/>
<path d="M371.447 453.249L376.435 491.113H366.459L371.447 453.249Z" fill="#3C8F7C"/>
<path d="M332.133 473.464L337.121 511.328H327.146L332.133 473.464Z" fill="#3C8F7C"/>
<path d="M343.594 449.703L350.141 499.43H337.03L343.594 449.703Z" fill="#3C8F7C"/>
<path d="M407.736 461.859C350.892 470.744 265.608 550.553 200.659 550.553C135.692 550.553 121.719 531.457 97.3498 535.504C72.9986 539.533 40.2858 550.553 40.2858 550.553L523.001 551.896C523.001 551.896 464.562 452.992 407.736 461.859Z" fill="#86B1F2"/>
<path d="M388.269 536.374H390.837V509.668H388.269V536.374Z" fill="#355389"/>
<path d="M389.564 457.881L397.926 521.418H381.184L389.564 457.881Z" fill="#3C8F7C"/>
<path d="M394.9 498.38L382.963 507.988L383.421 504.51L394.515 495.556L394.9 498.38Z" fill="#50BFA5"/>
<path d="M393.067 484.449L385.75 486.791L386.099 484.191L392.736 482.056L393.067 484.449Z" fill="#50BFA5"/>
<path d="M417.268 547.76H419.706V507.486H417.268V547.76Z" fill="#355389"/>
<path d="M417.84 435.687L429.905 516.976H405.792L417.84 435.687Z" fill="#3C8F7C"/>
<path d="M429.135 511.811L407.497 505.405L407.827 503.201L428.786 509.417L429.135 511.811Z" fill="#50BFA5"/>
<path d="M425.339 486.138L411 481.885L411.312 479.681L424.973 483.727L425.339 486.138Z" fill="#50BFA5"/>
<path d="M34.8397 551.896C34.8397 551.896 97.1664 501.067 177.518 497.95C204.491 496.9 314.989 517.924 408.029 534.436C411.935 535.125 420.388 541.927 424.349 542.632C468.394 550.415 509.45 552.051 522.726 552.55L34.8397 551.896Z" fill="#96D9C9"/>
<path d="M535.8 495.987L535.892 491.614C535.892 488.359 533.251 485.742 530.005 485.742C521.809 485.742 515.153 492.371 515.153 500.55V506.525C515.153 509.142 513.667 511.415 511.504 512.569C509.523 513.602 508.331 515.685 508.331 517.907V521.058C508.331 524.467 509.945 527.652 512.604 529.787C514.162 531.044 515.171 532.956 515.171 535.108V539.568C515.171 544.509 519.187 548.504 524.138 548.504H526.962C531.912 548.504 535.928 544.509 535.928 539.568C535.121 533.334 537.083 529.736 539.357 527.669C542.695 524.639 544.657 520.386 544.657 515.892V515.255C544.657 510.502 542.456 506.06 538.789 503.03C537.12 501.721 535.8 499.551 535.8 495.987Z" fill="#4E9B87"/>
<path d="M545.023 553.686C545.023 553.686 522.139 525.155 507.745 520.781C493.35 516.408 506.92 533.781 506.92 533.781C506.92 533.781 481.376 507.557 472.006 509.916C463.425 512.086 472.006 528.34 472.006 528.34C472.006 528.34 462.325 519.335 450.589 519.335C438.853 519.335 459.666 553.032 459.666 553.032L545.023 553.686Z" fill="#96D9C9"/>
<path d="M472.007 553.049C472.007 553.049 456.365 513.774 437.002 518.319C421.305 522.004 432.473 541.754 431.501 540.859C430.547 539.963 422.131 526.55 408.506 526.55C394.882 526.55 412.687 544.647 412.687 544.647C412.687 544.647 383.678 536.141 381.405 545.077C379.516 552.498 390.06 553.049 390.06 553.049H472.007Z" fill="#3C8F7C"/>
<path d="M114.494 545.714C114.586 545.232 114.623 544.716 114.623 544.216C114.623 538.534 108.957 533.92 101.952 533.92C94.9475 533.92 89.2814 538.534 89.2814 544.216C89.2814 544.733 89.3181 545.232 89.4098 545.714H114.494Z" fill="#3C8F7C"/>
<path d="M128.834 543.183C128.926 542.495 128.963 541.789 128.963 541.066C128.963 533.059 123.296 526.55 116.292 526.55C109.287 526.55 103.621 533.042 103.621 541.066C103.621 541.789 103.658 542.495 103.749 543.183H128.834Z" fill="#50BFA5"/>
<path d="M124.195 552.085C124.103 551.603 124.067 551.087 124.067 550.587C124.067 544.905 129.733 540.29 136.737 540.29C143.742 540.29 149.408 544.905 149.408 550.587C149.408 551.104 149.371 551.603 149.28 552.085H124.195Z" fill="#50BFA5"/>
<path d="M103.933 552.086C103.823 551.397 103.768 550.691 103.768 549.968C103.768 541.961 110.956 535.452 119.831 535.452C128.706 535.452 135.894 541.944 135.894 549.968C135.894 550.691 135.839 551.397 135.729 552.086H103.933Z" fill="#3C8F7C"/>
<path d="M116.255 535.452C111.818 535.452 107.857 537.519 105.253 540.739C103.915 540.446 102.503 540.274 101.036 540.274C93.1692 540.274 86.788 544.888 86.788 550.57C86.788 551.087 86.843 551.586 86.9347 552.068H130.356C130.448 551.38 130.503 550.674 130.503 549.951C130.503 541.961 124.122 535.452 116.255 535.452Z" fill="#50BFA5"/>
<path d="M61.3352 521.522C57.6129 516.046 56.9161 509.451 56.9894 504.871C57.0628 499.895 58.053 496.176 58.053 496.141L57.7779 496.055C57.7596 496.09 56.7877 499.843 56.696 504.854C56.6227 509.486 57.3195 516.149 61.0969 521.694L61.3352 521.522Z" fill="#3C8F7C"/>
<path d="M58.9692 495.211C58.8775 496.331 58.3457 497.278 57.5756 497.863C56.9155 497.088 56.5487 496.003 56.6404 494.884C56.7321 493.765 57.2639 492.818 58.034 492.232C58.6941 493.025 59.0609 494.092 58.9692 495.211Z" fill="#3C8F7C"/>
<path d="M56.4388 497.812C57.0806 498.793 57.2639 499.895 57.0622 500.86C56.0904 500.636 55.1552 499.999 54.5318 499.034C53.89 498.053 53.7066 496.951 53.9083 495.987C54.8802 496.21 55.8153 496.848 56.4388 497.812Z" fill="#3C8F7C"/>
<path d="M55.0267 500.877C56.0169 501.479 56.677 502.409 56.9337 503.373C55.9986 503.614 54.8984 503.477 53.9265 502.874C52.9363 502.271 52.2762 501.341 52.0195 500.377C52.9363 500.119 54.0365 500.274 55.0267 500.877Z" fill="#3C8F7C"/>
<path d="M55.4669 505.129C56.2371 505.611 56.7322 506.421 56.8605 507.316C56.0537 507.643 55.1369 507.609 54.3667 507.127C53.5966 506.644 53.1015 505.835 52.9731 504.94C53.7616 504.613 54.6784 504.647 55.4669 505.129Z" fill="#3C8F7C"/>
<path d="M58.6762 500.085C59.5563 499.654 60.5282 499.62 61.3717 499.93C61.1516 500.774 60.5649 501.549 59.6847 501.979C58.8045 502.409 57.8327 502.444 56.9892 502.134C57.2092 501.29 57.796 500.515 58.6762 500.085Z" fill="#3C8F7C"/>
<path d="M58.5845 503.029C59.4647 502.599 60.4365 502.564 61.28 502.874C61.06 503.718 60.4732 504.493 59.593 504.923C58.7129 505.354 57.741 505.388 56.8975 505.078C57.1176 504.217 57.7044 503.46 58.5845 503.029Z" fill="#3C8F7C"/>
<path d="M56.017 509.796C56.4754 509.899 56.8605 510.192 57.0989 510.571C56.7688 510.829 56.3287 510.932 55.8703 510.846C55.4119 510.743 55.0268 510.45 54.7884 510.071C55.1185 509.813 55.5586 509.693 56.017 509.796Z" fill="#3C8F7C"/>
<path d="M59.7946 525.379C51.268 523.468 44.7584 517.527 40.7977 512.895C36.5069 507.868 34.1965 503.219 34.1781 503.184L33.8297 503.356C33.8481 503.408 36.1768 508.074 40.486 513.136C44.4834 517.82 51.0663 523.812 59.7029 525.741L59.7946 525.379Z" fill="#3C8F7C"/>
<path d="M34.288 501.411C35.1865 502.616 35.4799 504.063 35.2415 505.371C33.9029 505.216 32.601 504.493 31.6842 503.271C30.7674 502.048 30.4923 500.619 30.7307 499.31C32.0876 499.483 33.3895 500.189 34.288 501.411Z" fill="#3C8F7C"/>
<path d="M34.0678 506.387C35.5531 506.765 36.7266 507.678 37.3684 508.832C36.2132 509.538 34.7096 509.796 33.2243 509.417C31.739 509.038 30.5655 508.126 29.9237 506.972C31.0789 506.266 32.5825 506.025 34.0678 506.387Z" fill="#3C8F7C"/>
<path d="M35.3335 510.795C36.8371 510.468 38.3224 510.761 39.4409 511.484C38.7258 512.621 37.4972 513.516 35.9936 513.843C34.49 514.17 33.0047 513.878 31.8862 513.154C32.6013 512.018 33.8115 511.123 35.3335 510.795Z" fill="#3C8F7C"/>
<path d="M38.7258 514.79C40.2294 514.463 41.7147 514.755 42.8332 515.478C42.1181 516.615 40.8895 517.51 39.3859 517.837C37.8823 518.165 36.397 517.872 35.2785 517.149C35.9936 516.012 37.2222 515.134 38.7258 514.79Z" fill="#3C8F7C"/>
<path d="M37.7172 508.143C37.6438 506.783 38.1206 505.492 38.9274 504.579C39.8259 505.302 40.4493 506.456 40.5227 507.833C40.596 509.194 40.1193 510.485 39.3125 511.398C38.3956 510.657 37.7905 509.504 37.7172 508.143Z" fill="#3C8F7C"/>
<path d="M41.2555 512.276C41.1638 510.916 41.6223 509.624 42.4107 508.694C43.3276 509.4 43.9694 510.554 44.061 511.914C44.1527 513.275 43.6943 514.566 42.9058 515.496C41.989 514.79 41.3472 513.636 41.2555 512.276Z" fill="#3C8F7C"/>
<path d="M44.19 518.75C44.7401 518.406 45.3818 518.337 45.9503 518.509C45.8586 519.077 45.5102 519.611 44.9601 519.956C44.41 520.3 43.7682 520.369 43.1998 520.197C43.2915 519.611 43.6398 519.077 44.19 518.75Z" fill="#3C8F7C"/>
<path d="M82.3858 536.709L82.7526 536.691C82.2208 527.531 85.7965 518.905 88.8954 513.274C92.251 507.179 95.79 503.201 95.8267 503.149L95.5516 502.891C95.515 502.926 91.9576 506.938 88.5653 513.067C85.4664 518.732 81.8541 527.445 82.3858 536.709Z" fill="#3C8F7C"/>
<path d="M97.4586 502.616C96.6151 503.942 95.4049 504.768 94.1763 505.009C93.9746 503.614 94.268 502.065 95.1115 500.722C95.955 499.396 97.1652 498.569 98.3938 498.328C98.5955 499.723 98.3021 501.29 97.4586 502.616Z" fill="#3C8F7C"/>
<path d="M92.9476 504.216C93.0026 505.817 92.4891 507.315 91.6456 508.383C90.7105 507.488 90.087 506.11 90.032 504.492C89.977 502.89 90.4904 501.392 91.3339 500.325C92.2691 501.22 92.8925 502.598 92.9476 504.216Z" fill="#3C8F7C"/>
<path d="M89.3539 507.075C90.0507 508.453 90.1791 510.02 89.8124 511.397C88.6205 511.104 87.5019 510.226 86.8051 508.849C86.1083 507.471 85.98 505.904 86.3467 504.527C87.5386 504.82 88.6571 505.715 89.3539 507.075Z" fill="#3C8F7C"/>
<path d="M86.8785 514.117C87.2085 514.668 87.3186 515.323 87.2085 515.908C86.6951 515.822 86.2 515.495 85.87 514.944C85.5399 514.393 85.4299 513.739 85.5399 513.153C86.0533 513.239 86.5484 513.566 86.8785 514.117Z" fill="#3C8F7C"/>
<path d="M85.8142 516.649C86.1443 517.2 86.2543 517.854 86.1443 518.44C85.6309 518.354 85.1358 518.026 84.8057 517.475C84.4756 516.924 84.3656 516.27 84.4756 515.685C84.9891 515.771 85.4842 516.098 85.8142 516.649Z" fill="#3C8F7C"/>
<path d="M93.9194 508.454C95.1846 508.471 96.2848 509.073 97 510.003C96.1931 510.916 95.0379 511.484 93.791 511.467C92.5258 511.45 91.4256 510.847 90.7104 509.917C91.4989 509.005 92.6541 508.436 93.9194 508.454Z" fill="#3C8F7C"/>
<path d="M91.8657 512.017C93.1309 512.034 94.2311 512.637 94.9462 513.566C94.1394 514.479 92.9842 515.047 91.7373 515.03C90.4721 515.013 89.3719 514.41 88.6567 513.48C89.4635 512.568 90.6188 512 91.8657 512.017Z" fill="#3C8F7C"/>
<path d="M88.4923 516.89C89.3174 516.907 90.0326 517.286 90.491 517.889C89.9592 518.474 89.2074 518.853 88.4006 518.836C87.5754 518.819 86.8603 518.44 86.4019 517.837C86.9153 517.252 87.6671 516.89 88.4923 516.89Z" fill="#3C8F7C"/>
<path d="M50.572 551.742C50.572 550.209 60.3821 552.017 61.2073 549.934C62.0324 547.85 52.809 547.73 52.809 544.923C52.809 542.116 57.5032 544.079 60.2721 544.079C63.0226 544.079 54.8261 542.874 54.8261 541.875C54.8261 540.877 57.705 541.411 57.705 540.343C57.705 539.293 42.5955 538.483 44.3741 535.901C46.1345 533.318 54.2576 536.658 56.4947 535.315C58.7318 533.972 44.5942 532.508 44.2274 530.528C43.879 528.531 54.6427 532.233 56.1647 530.804C57.6866 529.375 39.1298 524.226 39.9183 520.438C40.6884 516.65 53.9826 525.277 57.3015 524.347C60.6205 523.417 40.5601 510.141 45.2176 504.976C49.8752 499.81 58.7868 522.091 61.8307 521.299C64.8746 520.507 58.0167 507.214 61.1339 504.907C64.2328 502.6 73.1445 523.624 73.713 527.928C74.2814 532.25 75.3999 518.647 80.2775 517.046C85.1551 515.462 80.4242 525.466 81.2677 528.531C82.1112 531.579 86.0719 520.696 91.4079 521.506C96.7439 522.298 81.7628 532.25 83.2481 535.177C84.7333 538.105 96.3038 525.432 99.9162 528.841C103.547 532.25 85.9802 541.686 86.9521 544.269C87.9056 546.852 98.4492 542.426 101.475 545.267C104.5 548.109 90.161 549.917 88.254 549.917C86.347 549.917 79.0856 552.155 86.1819 551.724C93.2416 551.294 50.572 553.257 50.572 551.742Z" fill="#3C8F7C"/>
<path d="M78.5357 553.497C78.5357 553.497 90.3446 554.1 93.7919 552.051C97.2392 550.019 94.5254 548.435 94.5254 548.435C94.5254 548.435 105.454 548.211 105.417 545.783C105.399 543.356 102.74 543.493 102.74 543.493C102.74 543.493 108.26 539.981 107.233 537.777C105.656 534.402 96.6708 540.273 96.6708 540.273C96.6708 540.273 99.623 536.985 97.2392 536.227C90.693 534.126 78.5357 553.497 78.5357 553.497Z" fill="#50BFA5"/>
<path d="M107.231 537.776C108.258 539.963 102.739 543.493 102.739 543.493C102.739 543.493 106.718 543.441 106.076 545.8C105.434 548.159 95.4225 548.951 95.4225 548.951C95.4225 548.951 98.9248 549.588 95.4775 551.62C92.0302 553.652 78.5344 553.479 78.5344 553.479L107.231 537.776Z" fill="#96D9C9"/>
<path d="M30.1645 456.677C30.1828 456.075 31.063 455.61 31.5397 456.143C31.9981 456.677 31.9798 456.316 32.4382 457.469C33.7401 460.758 35.6655 463.943 37.8842 466.733C42.1567 472.071 46.3925 474.757 51.1967 477.426C49.2164 473.242 47.8961 468.765 47.7311 464.253C47.6761 462.618 47.6944 460.913 48.4462 459.398C48.6479 458.984 49.4547 459.071 49.5464 459.535C49.9498 461.86 49.363 463.616 50.1515 467.783C52.0585 477.718 59.6316 488.256 66.948 495.643C65.5544 483.142 64.8759 468.954 67.3697 456.35C67.7731 454.284 68.4333 452.321 69.0384 450.289C69.1851 449.807 69.9002 450.014 69.8085 450.496C69.6802 451.167 68.4883 459.845 68.4149 460.431C67.2597 470.022 67.4798 480.663 68.3966 490.357C74.0627 483.142 77.8584 474.722 79.637 465.924C80.1688 463.324 80.2972 460.637 81.0306 458.089C81.1406 457.745 81.7458 457.693 81.8191 458.089C82.5709 461.912 81.0673 468.679 79.9671 472.363C77.73 479.819 74.1543 486.5 69.2768 492.458C69.0934 492.681 77.1249 551.001 76.9049 551.742C76.5381 552.981 74.2277 553.859 73.8793 551.655C73.7326 550.76 69.3134 515.307 67.3331 498.88C66.5813 498.484 66.1045 497.795 64.1608 495.746C59.6866 491.011 55.2491 485.14 52.2969 479.578C50.5183 479.475 37.6825 473.62 31.3197 460.276C31.1363 459.897 30.3111 458.089 30.1828 457.676C30.0544 457.314 30.1461 457.022 30.1645 456.677Z" fill="#184655"/>
<path d="M71.3674 437.77C71.2207 435.98 71.1474 434.137 71.1474 432.278C71.1474 411.443 80.5541 394.569 92.1796 394.569C103.787 394.569 113.212 411.46 113.212 432.278C113.212 434.137 113.139 435.98 112.992 437.77H71.3674Z" fill="#50BFA5"/>
<path d="M47.5843 428.507C47.4376 425.976 47.3643 423.393 47.3643 420.759C47.3643 391.384 56.7711 367.57 68.3966 367.57C80.0221 367.57 89.4105 391.367 89.4105 420.742C89.4105 423.376 89.3371 425.959 89.1904 428.49H47.5843V428.507Z" fill="#96D9C9"/>
<path d="M55.2679 461.085C55.4146 459.295 55.488 457.452 55.488 455.593C55.488 434.758 46.0812 417.884 34.4557 417.884C22.8485 417.884 13.4235 434.775 13.4235 455.593C13.4235 457.452 13.4968 459.295 13.6435 461.085H55.2679Z" fill="#96D9C9"/>
<path d="M88.9342 461.085C89.1176 458.554 89.2093 455.971 89.2093 453.337C89.2093 423.962 77.272 400.148 62.5476 400.148C47.8232 400.148 35.886 423.962 35.886 453.337C35.886 455.971 35.9776 458.554 36.161 461.085H88.9342Z" fill="#50BFA5"/>
<path d="M68.4704 400.148C75.8234 400.148 82.4063 407.707 86.7338 419.554C88.9342 418.469 91.2813 417.883 93.7201 417.883C106.776 417.883 117.375 434.775 117.375 455.592C117.375 457.452 117.283 459.294 117.118 461.085H45.0544C44.8893 458.554 44.7976 455.971 44.7976 453.337C44.816 423.962 55.3963 400.148 68.4704 400.148Z" fill="#96D9C9"/>
<path d="M32.6573 543.304C32.7306 542.632 32.7673 541.926 32.7673 541.221C32.7673 533.352 27.9998 526.963 22.1137 526.963C16.2276 526.963 11.46 533.352 11.46 541.221C11.46 541.926 11.4967 542.615 11.57 543.304H32.6573Z" fill="#3C8F7C"/>
<path d="M44.7045 539.791C44.7778 538.827 44.8145 537.863 44.8145 536.864C44.8145 525.758 40.0469 516.77 34.1608 516.77C28.2747 516.77 23.5072 525.775 23.5072 536.864C23.5072 537.863 23.5438 538.844 23.6172 539.791H44.7045Z" fill="#50BFA5"/>
<path d="M40.7992 552.102C40.7258 551.43 40.6891 550.724 40.6891 550.018C40.6891 542.15 45.4567 535.761 51.3428 535.761C57.2289 535.761 61.9965 542.15 61.9965 550.018C61.9965 550.724 61.9598 551.413 61.8864 552.102H40.7992Z" fill="#50BFA5"/>
<path d="M23.7637 552.102C23.672 551.138 23.617 550.174 23.617 549.175C23.617 538.069 29.6682 529.081 37.1129 529.081C44.5759 529.081 50.6087 538.086 50.6087 549.175C50.6087 550.174 50.5537 551.155 50.4621 552.102H23.7637Z" fill="#3C8F7C"/>
<path d="M34.1245 529.081C30.4022 529.081 27.0649 531.939 24.8644 536.416C23.7459 536.003 22.554 535.779 21.3255 535.779C14.7059 535.779 9.35155 542.167 9.35155 550.036C9.35155 550.742 9.38822 551.431 9.47991 552.119H45.9701C46.0617 551.155 46.0984 550.191 46.0984 549.192C46.0984 538.086 40.7441 529.081 34.1245 529.081Z" fill="#50BFA5"/>
<path d="M235.996 391.915V390.633H231.383V391.915H235.996Z" fill="#F7CC7F"/>
<path d="M241.096 420.714V390.484C241.096 388.489 239.366 386.865 237.242 386.865H230.536C228.412 386.865 226.683 388.489 226.683 390.484V420.714C226.683 422.709 228.412 424.333 230.536 424.333H237.242C239.366 424.333 241.096 422.709 241.096 420.714Z" fill="#F47458"/>
<path d="M233.904 424.333H237.758C239.609 424.333 241.096 423.563 241.096 422.623V388.575C241.096 387.634 240.034 386.865 238.213 386.865H233.904V424.333Z" fill="#B75742"/>
<path d="M234.531 409.459V400.741H232.831V409.459H234.531Z" fill="#1A1A1A"/>
<path d="M254.81 420.658V398.661C254.81 396.638 253.051 394.986 250.896 394.986H244.312C242.157 394.986 240.398 396.638 240.398 398.661V420.658C240.398 422.681 242.157 424.333 244.312 424.333H250.896C253.051 424.333 254.81 422.681 254.81 420.658Z" fill="#355389"/>
<path d="M247.62 424.333H251.473C253.324 424.333 254.811 423.735 254.811 422.994V396.353C254.811 395.612 253.324 395.014 251.473 395.014H247.62V424.333Z" fill="#5184CE"/>
<path d="M249.709 398.917V397.92H245.097V398.917H249.709Z" fill="#F7CC7F"/>
<path d="M248.261 412.689V405.851H246.562V412.689H248.261Z" fill="#1A1A1A"/>
<path d="M179.47 424.817H178.772V431.399H179.47V424.817Z" fill="#13375B"/>
<path d="M262.912 424.817H262.214V431.399H262.912V424.817Z" fill="#13375B"/>
<path d="M232.782 410.799H185.204C182.868 410.799 180.987 412.565 180.987 414.759V420.344C180.987 422.538 182.868 424.304 185.204 424.304H232.782C235.118 424.304 236.999 422.538 236.999 420.344V414.759C237.03 412.565 235.118 410.799 232.782 410.799Z" fill="#B75742"/>
<path d="M237.03 417.552V413.933C237.03 412.195 235.877 410.799 234.482 410.799H183.566C182.171 410.799 181.018 412.195 181.018 413.933V417.552H237.03Z" fill="#91342A"/>
<path d="M190.029 415.586H188.118V419.917H190.029V415.586Z" fill="#F7CC7F"/>
<path d="M229.9 415.586H227.988V419.917H229.9V415.586Z" fill="#F7CC7F"/>
<path d="M214.759 416.954H201.712V418.549H214.759V416.954Z" fill="#1A1A1A"/>
<path d="M224.407 397.265H193.609C191.09 397.265 189.088 399.174 189.088 401.51V406.525C189.088 408.89 191.121 410.77 193.609 410.77H224.407C226.925 410.77 228.928 408.861 228.928 406.525V401.539C228.958 399.174 226.925 397.265 224.407 397.265Z" fill="#4E9B87"/>
<path d="M228.958 404.046V400.399C228.958 398.661 228.139 397.265 227.138 397.265H190.878C189.877 397.265 189.057 398.661 189.057 400.399V404.018H228.958V404.046Z" fill="#3C8F7C"/>
<path d="M194.428 402.08H193.063V406.41H194.428V402.08Z" fill="#F7CC7F"/>
<path d="M259.847 424.304L226.865 424.276L226.319 410.486H259.847C263.913 410.486 267.221 413.591 267.221 417.409C267.221 421.227 263.913 424.304 259.847 424.304Z" fill="#FAE0B2"/>
<path d="M233.905 417.409C233.905 421.227 230.87 424.333 227.138 424.333C223.406 424.333 220.372 421.227 220.372 417.409C220.372 413.591 223.406 410.486 227.138 410.486C230.87 410.486 233.905 413.591 233.905 417.409Z" fill="#F7CC7F"/>
<path d="M240.884 424.959C240.58 424.731 240.52 424.332 240.732 424.019C242.977 421.056 243.584 417.893 242.583 414.645C242.037 412.821 241.066 411.454 240.55 410.77C240.338 410.485 240.368 410.115 240.641 409.887C240.944 409.63 241.43 409.659 241.703 410.001C242.31 410.77 243.311 412.28 243.948 414.246C244.768 416.81 245.01 420.714 241.915 424.845C241.673 425.13 241.218 425.187 240.884 424.959Z" fill="#F47458"/>
<path d="M252.96 424.959C252.657 424.731 252.596 424.332 252.809 424.019C255.054 421.056 255.661 417.893 254.66 414.645C254.113 412.821 253.142 411.454 252.627 410.77C252.414 410.485 252.445 410.115 252.718 409.887C253.021 409.63 253.507 409.659 253.78 410.001C254.386 410.77 255.388 412.28 256.025 414.246C256.844 416.81 257.087 420.714 253.992 424.845C253.719 425.13 253.264 425.187 252.96 424.959Z" fill="#F47458"/>
<path d="M232.721 416.155C232.357 413.989 231.113 412.878 230.112 412.337C228.655 411.539 226.744 411.425 225.075 412.024C223.467 412.593 222.192 413.933 221.707 415.471C221.282 416.839 221.585 418.263 222.556 419.432C224.164 421.398 226.653 421.084 227.866 420.6C228.959 420.144 229.778 419.09 229.96 417.921C230.112 416.953 229.626 416.041 228.746 415.5C227.866 414.958 226.744 414.958 225.894 415.5C225.257 415.898 224.62 416.639 225.226 418.092L225.712 417.921C225.317 417.01 225.469 416.354 226.167 415.927C226.865 415.5 227.745 415.5 228.473 415.927C229.201 416.354 229.565 417.095 229.444 417.864C229.292 418.89 228.594 419.802 227.654 420.172C226.592 420.6 224.377 420.885 222.951 419.175C221.858 417.836 221.919 416.525 222.192 415.671C222.617 414.274 223.8 413.049 225.226 412.536C226.774 411.967 228.503 412.08 229.839 412.793C231.113 413.477 231.932 414.673 232.175 416.269C232.509 418.32 232.114 419.944 230.961 421.113C228.807 423.307 224.255 423.278 223.467 423.25C223.74 423.421 224.043 423.592 224.346 423.734H224.377C225.773 423.734 229.292 423.506 231.325 421.426C232.63 420.144 233.085 418.377 232.721 416.155Z" fill="#F47458"/>
<path d="M223.892 402.08H222.526V406.41H223.892V402.08Z" fill="#F7CC7F"/>
<path d="M213.119 403.448H203.834V405.044H213.119V403.448Z" fill="#1A1A1A"/>
<path d="M200.857 396.701L185.173 424.625L185.629 424.85L201.313 396.927L200.857 396.701Z" fill="black"/>
<path d="M218.468 396.487L218.012 396.713L234.109 425.367L234.566 425.141L218.468 396.487Z" fill="black"/>
<path d="M251.609 394.619L251.131 394.802L264.174 424.857L264.652 424.674L251.609 394.619Z" fill="black"/>
<path d="M235.972 386.602L235.486 386.763L249.781 424.809L250.267 424.648L235.972 386.602Z" fill="black"/>
<path d="M266.098 424.305H175.707V425.188H266.098V424.305Z" fill="#13375B"/>
<path d="M112.169 519.3C112.169 519.3 181.138 530.041 181.988 529.586C182.807 529.13 191.758 492.916 191.758 492.916C191.758 492.916 134.714 483.285 133.804 483.285C132.893 483.285 120.483 492.602 120.301 493.229C120.119 493.856 112.169 519.3 112.169 519.3Z" fill="#183658"/>
<path d="M322.596 528.502C324.265 528.645 407.799 526.964 407.799 526.964L401.518 508.928C401.518 508.928 389.927 492.488 383.828 492.772C377.698 493.086 341.318 487.53 335.037 491.633C328.756 495.736 323.142 492.459 320.138 502.26C317.165 512.033 314.828 513.145 317.165 519.043C319.44 524.941 322.596 528.502 322.596 528.502Z" fill="#183658"/>
<path d="M147.003 552.465C162.705 552.465 175.434 540.512 175.434 525.767C175.434 511.022 162.705 499.069 147.003 499.069C131.301 499.069 118.572 511.022 118.572 525.767C118.572 540.512 131.301 552.465 147.003 552.465Z" fill="#1A1A1A"/>
<path d="M147.002 544.344C157.929 544.344 166.786 536.026 166.786 525.767C166.786 515.507 157.929 507.189 147.002 507.189C136.076 507.189 127.219 515.507 127.219 525.767C127.219 536.026 136.076 544.344 147.002 544.344Z" fill="#9E9DA2"/>
<path d="M147.002 538.189C154.309 538.189 160.232 532.627 160.232 525.766C160.232 518.905 154.309 513.344 147.002 513.344C139.696 513.344 133.773 518.905 133.773 525.766C133.773 532.627 139.696 538.189 147.002 538.189Z" fill="#D8D9DD"/>
<path d="M365.926 552.465C381.628 552.465 394.357 540.512 394.357 525.767C394.357 511.022 381.628 499.069 365.926 499.069C350.224 499.069 337.495 511.022 337.495 525.767C337.495 540.512 350.224 552.465 365.926 552.465Z" fill="#1A1A1A"/>
<path d="M365.927 544.344C376.853 544.344 385.711 536.026 385.711 525.767C385.711 515.507 376.853 507.189 365.927 507.189C355.001 507.189 346.144 515.507 346.144 525.767C346.144 536.026 355.001 544.344 365.927 544.344Z" fill="#9E9DA2"/>
<path d="M352.697 525.767C352.697 532.633 358.614 538.189 365.927 538.189C373.239 538.189 379.156 532.633 379.156 525.767C379.156 518.9 373.239 513.344 365.927 513.344C358.614 513.315 352.697 518.9 352.697 525.767Z" fill="#D8D9DD"/>
<path d="M431.194 500.322C428.797 485.449 421.029 482.315 398.029 477.984C372.663 473.226 340.469 457.697 340.469 457.697C340.469 457.697 285.549 432.424 272.107 429.518C258.665 426.612 225.561 427.438 197.767 427.666C169.973 427.866 153.649 435.131 139.539 445.474C125.43 455.817 100.943 463.709 100.943 463.709L96.483 464.45C91.9013 465.219 88.5939 468.952 88.5939 473.311V510.238C88.5939 514.426 91.5978 518.073 95.9065 519.156L111.988 523.145C113.293 523.344 114.507 522.49 114.658 521.236C116.418 506.135 130.315 494.652 146.913 494.652C164.542 494.681 179.015 508.272 179.015 524.854C179.015 526.735 178.833 528.587 178.469 530.354C178.105 532.206 179.622 533.887 181.625 533.887H329.546C332.428 533.887 334.643 531.522 334.279 528.843C334.097 527.561 334.006 526.251 334.006 524.911C333.945 508.557 348.055 494.994 365.472 494.652C383.526 494.31 398.272 507.93 398.272 524.826C398.272 525.937 398.211 527.048 398.09 528.131C397.726 531.208 400.275 533.887 403.552 533.887H424.822C428.676 533.887 431.831 530.952 431.831 527.305V507.958C431.771 505.451 431.619 502.858 431.194 500.322Z" fill="#F7CC7F"/>
<path d="M89.5338 477.699H107.042C108.528 477.699 109.56 479.124 108.984 480.435L107.011 484.851C105.13 489.068 100.761 491.803 95.9058 491.803H89.5338C88.2898 491.803 87.2581 490.863 87.2581 489.666V479.836C87.2581 478.64 88.2898 477.699 89.5338 477.699Z" fill="#CF283C"/>
<path d="M403.338 484.538C412.987 485.934 424.092 494.511 424.092 494.511C426.762 497.189 424.547 501.548 420.664 501.32L401.851 500.209C397.937 499.981 394.599 497.474 393.537 493.941C391.686 487.986 393.234 483.085 403.338 484.538Z" fill="#EAFCFC"/>
<path d="M88.6844 511.634C87.4707 511.606 86.6211 512.745 87.0762 513.8C88.3202 516.791 91.0208 519.128 94.4798 519.983L112.503 524.456C113.96 524.684 115.325 523.715 115.507 522.319C115.841 519.441 116.569 516.706 117.631 514.113C117.995 513.23 117.298 512.29 116.327 512.261L88.6844 511.634Z" fill="#EAB054"/>
<path d="M398.393 518.587C397.028 518.558 395.966 519.669 396.148 520.951C396.33 522.376 396.451 523.801 396.451 525.282C396.451 526.536 396.39 527.733 396.239 528.958C395.844 532.377 398.666 535.369 402.307 535.369H425.914C430.192 535.369 433.682 532.092 433.682 528.075V522.348C433.682 520.723 432.286 519.384 430.556 519.356L398.393 518.587Z" fill="#EAB054"/>
<path opacity="0.5" d="M340.499 466.274C340.195 466.103 308.912 450.005 288.188 440.973C267.646 432.054 244.737 432.995 243.766 433.023C241.126 432.966 186.297 431.855 169.456 436.784C152.464 441.742 130.375 464.393 129.434 465.362L129.192 465.619L135.139 491.832L135.776 491.803C153.071 490.892 166.301 495.222 174.068 504.312C179.925 511.178 180.653 518.444 180.653 518.529L180.713 519.156L243.068 520.666H243.796L244.555 520.695L331.456 522.29V521.578C331.881 495.051 340.832 467.385 340.893 467.1L341.075 466.559L340.499 466.274ZM182.018 517.76C181.715 515.794 180.41 509.583 175.252 503.485C169.699 496.932 158.412 489.353 136.322 490.379L130.8 466.046C133.348 463.453 154.285 442.711 169.911 438.123C185.538 433.536 236.362 434.305 243.068 434.419V519.242L182.018 517.76ZM329.939 520.837L244.524 519.27V434.419C248.53 434.305 269.072 434.191 287.581 442.255C306.788 450.603 335.067 465.077 339.285 467.243C338.01 471.203 330.485 496.391 329.939 520.837Z" fill="#FEB546"/>
<path opacity="0.5" d="M87.0756 513.801C88.3196 516.792 91.0202 519.129 94.4792 519.984L112.503 524.457C113.959 524.685 115.325 523.716 115.507 522.32C115.628 521.209 115.81 520.126 116.053 519.072L87.0756 513.801Z" fill="#FEB546"/>
<path opacity="0.5" d="M396.391 526.878C396.36 527.59 396.3 528.274 396.209 528.986C395.814 532.405 398.636 535.397 402.277 535.397H425.884C430.162 535.397 433.652 532.12 433.652 528.103V526.906H396.391V526.878Z" fill="#FEB546"/>
<path d="M335.371 526.879C335.371 525.368 335.492 523.887 335.704 522.434C335.977 520.696 334.582 519.1 332.7 519.043L178.832 515.51C177.163 515.482 175.95 516.963 176.405 518.502C177.194 521.152 177.619 523.944 177.619 526.822C177.619 528.731 177.436 530.583 177.072 532.406C176.708 534.287 178.225 536.053 180.258 536.053H330.819C333.762 536.053 336.008 533.603 335.613 530.839C335.462 529.528 335.371 528.189 335.371 526.879Z" fill="#EAB054"/>
<path opacity="0.5" d="M335.371 526.878C335.371 526.85 335.371 526.821 335.371 526.793H177.65C177.65 528.702 177.468 530.554 177.104 532.377C176.739 534.258 178.257 536.024 180.289 536.024H330.85C333.794 536.024 336.039 533.574 335.644 530.81C335.462 529.528 335.371 528.189 335.371 526.878Z" fill="#FEB546"/>
<path d="M147.61 468.753L232.63 469.494C232.63 469.494 237.849 469.352 238.547 464.764C239.245 460.177 239.185 440.46 239.185 440.46C239.185 440.46 238.578 436.5 234.542 436.443C232.084 436.414 211.542 435.046 191.577 437.326C175.283 439.178 160.202 446.187 148.763 456.929L142.725 462.599C142.725 462.599 138.659 468.668 147.61 468.753Z" fill="#EAFCFC"/>
<path d="M248.651 442.968V463.625C248.651 466.303 250.836 468.526 253.628 468.611L320.442 471.147C321.99 471.204 323.477 470.549 324.357 469.324C325.57 467.671 325.692 464.936 319.714 461.26C309.307 454.906 282.817 441.116 273.017 439.805C266.766 438.95 258.604 438.58 253.506 438.438C250.866 438.352 248.651 440.404 248.651 442.968Z" fill="#EAFCFC"/>
<path d="M160.203 459.094C160.203 459.094 215.608 453.168 216.792 454.193C217.975 455.219 225.682 472.144 227.078 476.759L161.811 476.19L157.229 469.693L160.203 459.094Z" fill="#B75742"/>
<path d="M277.69 463.766C277.69 463.766 282.787 469.436 284.244 475.534L282.635 477.984L279.419 474.793L277.69 463.766Z" fill="#263D60"/>
<path d="M283.121 448.894C282.15 442.91 276.385 438.608 270.377 441.514C269.011 442.17 267.191 443.48 266.25 444.62C263.732 447.669 263.064 451.43 260.455 454.393C261.426 455.077 262.579 455.789 263.944 456.473L265.583 454.421L265.037 456.957C269.072 458.781 274.777 460.262 282.605 460.234C283.576 456.103 283.637 452.085 283.121 448.894Z" fill="#1A1A1A"/>
<path d="M269.618 462.056C269.618 462.056 263.823 461.714 261.547 464.051C259.241 466.387 266.644 484.936 267.039 487.899C267.464 490.891 263.61 496.817 263.61 496.817C263.61 496.817 279.54 503.827 283.454 501.405C283.454 501.405 282.817 477.499 282.423 475.391C281.998 473.254 278.539 464.592 277.689 463.737C276.84 462.911 269.618 462.056 269.618 462.056Z" fill="#355389"/>
<path d="M271.53 454.791C271.53 454.791 271.499 454.962 271.438 455.219C271.165 456.529 270.194 460.86 269.527 462.057C268.708 463.51 272.318 468.097 275.778 467.528C276.809 467.357 274.898 463.311 274.989 462.883C275.171 462.057 275.413 460.946 275.656 459.778C275.808 459.122 275.929 458.467 276.051 457.84C276.415 456.074 276.718 454.649 276.718 454.649L271.53 454.791Z" fill="#F7A491"/>
<path d="M160.627 460.092C160.567 459.721 160.415 459.408 160.203 459.095L151.98 466.845C151.98 466.845 145.79 476.048 159.414 476.19L163.146 476.219L160.627 460.092Z" fill="#B75742"/>
<path opacity="0.3" d="M271.439 455.22C271.5 454.935 271.53 454.792 271.53 454.792L276.719 454.678C276.719 454.678 276.415 456.103 276.051 457.869C275.93 458.496 275.778 459.123 275.657 459.778C274.868 459.664 274.018 459.294 273.169 458.61C272.258 457.869 271.652 456.958 271.288 455.989C271.348 455.704 271.409 455.419 271.439 455.22Z" fill="#F47458"/>
<path d="M275.019 443.736C275.019 443.736 272.591 443.48 271.044 445.332C269.527 447.184 267.858 452.94 271.681 456.045C275.474 459.179 279.236 455.646 279.813 451.885C280.359 448.153 280.571 443.622 275.019 443.736Z" fill="#F7A491"/>
<path d="M280.906 451.857C280.451 452.684 279.693 453.14 279.207 452.883C278.722 452.627 278.691 451.743 279.146 450.917C279.601 450.091 280.36 449.635 280.846 449.891C281.331 450.148 281.361 451.031 280.906 451.857Z" fill="#F7A491"/>
<path d="M275.292 443.139C275.292 443.139 272.015 448.609 269.709 448.837C267.373 449.094 267.069 452 267.069 452C267.069 452 267.919 445.304 270.225 444.022C272.531 442.74 275.292 443.139 275.292 443.139Z" fill="#1A1A1A"/>
<path d="M270.317 450.233C270.499 451.202 270.135 452.085 269.467 452.228C268.8 452.342 268.102 451.658 267.92 450.689C267.738 449.721 268.102 448.837 268.769 448.695C269.437 448.581 270.135 449.265 270.317 450.233Z" fill="#F7A491"/>
<path d="M262.093 488.555C262.093 488.498 264.278 479.751 265.158 477.814C266.038 475.876 269.497 466.872 269.497 466.872L265.036 465.961C265.036 465.961 262.154 472.998 260.849 476.189C259.544 479.381 260.09 485.25 260.03 486.903C260.03 486.931 259.848 488.299 259.848 488.327C259.817 488.498 259.757 488.669 259.757 488.698C259.696 488.783 259.544 489.325 259.544 489.382C259.544 489.439 259.393 489.61 259.362 489.695C259.301 489.78 259.18 490.892 259.15 491.091C259.119 491.262 259.21 491.689 259.21 491.689L259.15 492.43C259.119 492.972 259.726 492.829 259.726 492.829C259.726 493.086 259.817 493.228 259.969 493.285C260.121 493.342 260.303 493.285 260.333 493.314C260.363 493.314 260.363 493.399 260.363 493.399C260.333 493.57 260.546 493.684 260.667 493.712C260.788 493.741 261.031 493.655 261.092 493.57C261.152 493.484 261.213 493.513 261.213 493.513C261.334 493.627 261.85 493.598 261.972 493.456C262.093 493.314 262.184 492.516 262.245 492.43C262.305 492.345 262.396 492.231 262.427 492.117C262.457 492.003 262.852 491.177 262.882 491.034C262.912 490.892 262.639 490.322 262.609 489.98C262.548 489.638 262.214 489.154 262.123 488.983C262.063 488.954 262.093 488.783 262.093 488.555Z" fill="#F48C7F"/>
<path d="M276.84 453.709L273.078 453.538C273.078 453.538 273.078 454.877 274.746 454.991C276.749 455.162 276.84 453.709 276.84 453.709Z" fill="white"/>
<path d="M256.329 456.416L254.964 464.849C254.964 464.849 259.909 474.879 262.883 474.024C265.371 473.283 263.824 464.422 263.824 464.422C263.824 464.422 262.458 459.664 262.883 457.27C263.278 454.849 256.329 456.416 256.329 456.416Z" fill="#F7A491"/>
<path d="M262.883 457.243C263.277 454.85 256.329 456.417 256.329 456.417L256.207 457.129C256.42 457.585 256.663 457.984 256.966 458.297C258.513 459.864 260.941 460.833 263.065 460.89C262.852 459.579 262.731 458.212 262.883 457.243Z" fill="#F47458"/>
<path d="M255.176 444.478C254.994 444.421 253.598 454.08 256.207 456.73C258.817 459.38 263.945 460.263 265.765 458.155C267.798 455.847 267.677 445.447 263.611 442.712C259.545 440.005 255.176 444.478 255.176 444.478Z" fill="#F7A491"/>
<path d="M262.094 437.583C258.938 438.181 256.905 440.005 256.147 440.774C254.72 440.945 252.779 441.686 250.776 444.82C248.318 448.667 250.139 452.941 252.991 455.049C255.873 457.129 255.813 459.551 255.813 459.551L256.268 458.297C256.602 457.357 256.753 456.331 256.632 455.362C256.571 454.764 256.42 454.109 256.177 453.596C255.479 452.2 257.664 451.26 258.271 450.091C258.726 449.208 258.756 447.157 259.515 445.675L260.395 444.535C260.395 444.535 262.428 443.054 264.43 443.453C266.402 443.851 266.129 436.785 262.094 437.583Z" fill="#13375B"/>
<path d="M258.12 451.801C258.15 452.969 257.574 453.937 256.846 453.966C256.117 453.966 255.51 453.026 255.51 451.858C255.51 450.689 256.057 449.721 256.785 449.692C257.513 449.664 258.12 450.604 258.12 451.801Z" fill="#F7A491"/>
<path d="M262.398 454.507L266.342 454.308C266.342 454.308 266.342 455.733 264.583 455.847C262.489 456.018 262.398 454.507 262.398 454.507Z" fill="white"/>
<path d="M253.841 464.508C254.205 463.882 254.873 463.454 255.631 463.369C258.939 463.084 268.072 463.084 272.745 470.663C273.473 471.859 274.019 473.142 274.383 474.481L275.354 478.27L251.323 477.529L251.353 475.022C251.171 471.375 251.99 467.728 253.841 464.508Z" fill="#3C8F7C"/>
<path d="M310.885 479.665L314.374 466.359C314.617 465.476 314.04 464.564 313.07 464.336C312.129 464.109 311.158 464.65 310.915 465.562L307.274 479.495L310.885 479.665Z" fill="#1A1A1A"/>
<path d="M301.872 479.267C302.874 478.697 303.662 478.213 304.209 477.9C304.239 477.871 306.757 476.731 306.818 476.731C307.182 476.617 307.486 476.503 307.546 476.503C307.728 476.503 308.821 476.161 308.912 476.105C309.003 476.076 309.458 476.076 309.64 476.076C309.822 476.076 311.855 475.107 312.189 474.936C312.523 474.794 313.129 474.224 313.129 474.224L314.434 473.512C315.405 472.999 314.525 472.23 314.525 472.23C314.98 471.973 315.102 471.688 315.041 471.403C314.95 471.118 314.707 470.89 314.677 470.833C314.677 470.776 314.798 470.691 314.798 470.691C315.102 470.548 315.102 470.121 315.011 469.893C314.92 469.665 314.555 469.409 314.343 469.409C314.161 469.38 314.131 469.295 314.131 469.295C314.161 468.981 313.645 468.269 313.281 468.241C312.917 468.212 311.461 468.896 311.278 468.896C311.096 468.896 310.793 468.839 310.581 468.953C310.368 469.038 308.578 469.266 308.275 469.409C307.971 469.551 307.304 470.491 306.818 470.89C306.333 471.318 305.817 472.343 305.665 472.628C305.604 472.742 305.271 472.913 304.906 473.084C304.846 473.141 293.892 476.845 287.429 478.669L301.872 479.267Z" fill="#F7A491"/>
<path d="M267.737 477.985C267.07 474.167 266.22 470.149 265.31 468.269C263.337 464.194 256.692 461.772 253.446 464.308C251.716 465.647 252.444 472.087 253.931 477.643L267.737 477.985Z" fill="#50BFA5"/>
<path d="M171.216 455.846C171.216 455.846 163.084 455.647 160.323 457.385C157.562 459.095 157.896 476.19 157.896 476.19L160.566 476.675C160.566 476.675 161.537 488.442 163.631 489.04C165.724 489.667 179.378 485.707 182.231 482.402C185.083 479.096 176.223 454.707 176.223 454.707L171.216 455.846Z" fill="#3C8F7C"/>
<path d="M185.69 442.284C186.388 440.232 186.873 433.992 187.025 431.855C186.904 431.713 186.327 430.801 186.388 429.006C186.418 427.752 185.508 425.672 186.357 425.815C187.207 425.957 187.268 428.123 187.783 427.752C188.299 427.382 188.542 422.823 189.301 422.937C190.09 423.051 189.543 427.353 189.998 427.012C190.454 426.67 190.484 422.709 191.576 422.909C192.669 423.08 191.091 427.553 191.667 427.667C192.244 427.752 193.184 424.932 194.064 425.074C194.944 425.216 192.608 428.892 192.881 428.721C193.154 428.522 195.035 427.012 195.339 427.353C195.703 427.724 191.334 432.055 191.334 433.166C191.698 436.044 192.426 441.229 191.425 444.506C190.211 448.495 187.116 457.385 187.116 457.385L180.532 455.903C180.532 455.96 184.84 444.734 185.69 442.284Z" fill="#F7A491"/>
<path d="M188.483 428.635C188.817 428.777 189.09 428.977 189.302 429.233C189.333 429.29 190.152 430.003 189.939 431.199C189.818 430.458 189.636 429.632 188.483 428.635Z" fill="#F48C7F"/>
<path d="M146.335 459.179C146.335 459.179 146.517 458.182 145.607 456.644C145.03 455.646 144.878 453.652 144.272 454.079C143.665 454.507 144.575 456.273 144.029 456.159C143.483 456.045 141.359 452.484 140.843 452.883C140.297 453.281 142.542 456.501 142.026 456.416C141.541 456.33 139.842 453.167 139.083 453.709C138.324 454.25 141.419 457.242 141.025 457.555C140.63 457.84 138.719 455.931 138.112 456.359C137.505 456.815 140.843 458.894 140.539 458.837C140.236 458.781 138.173 458.268 138.082 458.667C137.96 459.094 142.299 460.376 142.785 461.288C143.27 462.2 150.704 471.175 152.828 471.203C154.952 471.203 164.48 465.163 165.178 463.168C165.876 461.202 164.996 459.122 163.63 458.837C162.235 458.553 153.344 464.565 152.919 464.479C152.494 464.394 146.335 459.179 146.335 459.179Z" fill="#F7A491"/>
<path d="M144.12 457.014C143.908 457.27 143.787 457.584 143.696 457.897C143.696 457.954 143.362 458.98 144.181 459.892C143.938 459.208 143.635 458.439 144.12 457.014Z" fill="#F48C7F"/>
<path d="M166.393 471.603C166.393 471.603 174.949 477.985 175.89 479.296C176.588 480.265 174.252 491.263 174.252 491.263C174.252 491.263 170.853 491.348 169.306 490.237C169.306 490.237 170.246 482.629 169.822 482.344C169.427 482.06 160.021 478.128 160.021 478.128L160.628 473.626L166.393 471.603Z" fill="#B75742"/>
<path d="M182.838 448.609C182.838 448.609 184.325 448.865 189.392 454.051L183.506 465.306L178.075 455.96L182.838 448.609Z" fill="#9BC1F9"/>
<path d="M173.28 456.53C173.28 456.53 177.134 455.732 178.499 455.105C179.864 454.478 192.396 482.23 189.24 483.199C182.626 485.25 165.482 490.664 165.482 490.664C165.482 490.664 164.996 489.068 165.603 486.133C166.696 481.062 166.332 469.75 166.089 467.784C165.967 466.616 158.655 469.978 158.655 469.978L155.772 461.202C155.772 461.202 164.117 458.524 166.908 457.698C167.727 457.441 173.28 456.53 173.28 456.53Z" fill="#9BC1F9"/>
<path d="M187.572 473.711C185.994 469.124 175.648 455.988 175.557 455.846L177.256 454.763C177.62 455.276 186.086 466.445 187.724 471.289L187.572 473.711Z" fill="#3C8F7C"/>
<path d="M165.088 482.201L164.026 480.919C164.086 480.862 171.308 475.449 171.52 469.437C171.703 463.368 166.514 457.527 166.453 457.47L167.788 456.416C168.031 456.672 173.493 462.769 173.28 469.494C173.038 476.246 165.422 481.973 165.088 482.201Z" fill="#3C8F7C"/>
<path d="M171.429 437.982C171.429 437.982 174.493 435.845 177.376 439.321C179.682 442.085 179.379 441.201 180.532 442.598C181.685 443.965 183.414 444.079 183.657 446.387C183.93 448.667 182.838 449.151 182.838 449.151C182.838 449.151 184.082 450.832 183.141 452.769C182.2 454.707 179.561 456.587 177.164 456.559C177.164 456.559 173.826 458.753 170.154 458.24C166.483 457.727 167.727 457.613 166.271 457.756C164.814 457.898 160.657 456.417 160.991 453.624C160.991 453.624 158.29 451.174 160.354 448.752C162.447 446.33 163.57 444.621 164.571 441.543C165.573 438.466 169.73 437.44 171.429 437.982Z" fill="#1A1A1A"/>
<path d="M175.526 453.766C175.526 453.766 175.859 457.812 176.315 458.154C176.77 458.496 177.407 459.066 176.921 460.092C176.436 461.117 173.796 460.776 172.522 460.32C171.308 459.892 170.458 459.009 170.458 459.009L170.337 452.541L175.526 453.766Z" fill="#F7A491"/>
<path d="M174.008 455.618C173.158 455.419 171.641 455.049 170.337 453.453L170.306 452.541L175.525 453.766C175.525 453.766 175.616 454.764 175.738 455.789C175.04 455.846 174.402 455.704 174.008 455.618Z" fill="#F48C7F"/>
<path d="M168.182 449.008C168.182 449.008 167.788 446.643 166.271 447.27C164.754 447.896 166.362 451.373 167.636 451.116C168.941 450.86 168.182 449.008 168.182 449.008Z" fill="#F7A491"/>
<path d="M172.886 439.805C172.886 439.805 175.313 439.52 176.77 441.173C178.226 442.825 180.138 447.783 178.499 451.487C176.83 455.191 174.13 454.593 173.007 454.365C171.885 454.108 169.67 453.538 168.213 450.376C166.726 447.185 166.666 439.748 172.886 439.805Z" fill="#F7A491"/>
<path d="M222.525 477.643L227.016 497.702L219.279 496.99L215.577 478.64L222.525 477.643Z" fill="#F7A491"/>
<path d="M223.861 478.213L215.578 478.64C215.578 478.64 214.971 473.255 214.819 470.691C214.637 467.585 214.698 463.539 215.123 463.596C216.276 463.796 217.823 464.28 218.764 465.42C222.101 469.323 223.861 478.213 223.861 478.213Z" fill="#5184CE"/>
<path d="M218.4 470.006C218.613 470.947 223.862 497.188 223.862 497.188C211.452 503.599 201.955 498.129 201.955 498.129C201.955 498.129 202.44 480.492 201.803 478.041C201.378 476.417 199.861 465.761 200.953 465.419C202.379 464.963 204.534 464.279 206.324 464.023C207.871 463.795 213.849 463.425 214.941 463.709C214.941 463.681 217.581 466.046 218.4 470.006Z" fill="#EAFCFC"/>
<path d="M213.94 444.99C213.94 444.99 218.976 444.904 218.552 448.836C218.552 448.836 222.284 450.204 219.796 453.367C219.796 453.367 222.466 456.757 217.823 460.034C217.823 460.034 216.579 464.593 211.36 462.427C211.36 462.427 209.813 463.51 207.659 462.057C205.504 460.604 205.231 459.749 205.231 459.749C205.231 459.749 200.498 458.894 201.135 454.82C201.135 454.82 198.647 452.825 202.409 450.318C202.409 450.318 202.349 444.705 207.416 445.446C207.446 445.417 210.42 441.143 213.94 444.99Z" fill="#13375B"/>
<path d="M206.08 454.193C205.959 455.19 205.261 455.931 204.532 455.845C203.804 455.76 203.349 454.876 203.47 453.879C203.592 452.882 204.29 452.141 205.018 452.227C205.746 452.312 206.232 453.195 206.08 454.193Z" fill="#F7A491"/>
<path d="M217.883 457.214C217.428 458.125 216.548 458.638 215.881 458.353C215.213 458.068 215.031 457.1 215.486 456.188C215.941 455.276 216.821 454.763 217.489 455.048C218.156 455.333 218.308 456.302 217.883 457.214Z" fill="#F7A491"/>
<path d="M211.815 460.262C211.815 460.319 212.24 462.912 212.453 464.251C212.544 464.764 212.24 465.248 211.724 465.419C210.359 465.904 207.689 466.502 206.02 464.849C205.868 464.707 205.808 464.479 205.808 464.28L206.505 458.268L211.815 460.262Z" fill="#F7A491"/>
<path d="M212.239 462.855C210.783 463.424 206.596 462.94 206.262 460.461L206.505 458.296L211.815 460.262C211.815 460.29 212.118 462.057 212.239 462.855Z" fill="#F48C7F"/>
<path d="M213.181 448.038C213.181 448.038 210.966 447.583 208.872 448.808C206.748 450.033 203.319 454.877 206.202 459.094C209.054 463.31 213.939 461.231 215.638 457.897C217.338 454.563 218.066 449.606 213.181 448.038Z" fill="#F7A491"/>
<path d="M211.815 458.439L208.872 458.268C208.872 458.268 208.872 459.322 210.177 459.436C211.755 459.578 211.815 458.439 211.815 458.439Z" fill="white"/>
<path d="M216.944 450.375C216.944 450.375 214.789 449.292 213.211 449.435C211.603 449.577 206.415 453.139 205.656 452.54C204.897 451.942 205.868 448.808 206.475 448.352C207.082 447.896 209.479 446.528 209.692 446.5C209.904 446.471 212.089 446.5 212.453 446.614C212.817 446.699 215.548 447.925 215.548 447.925L216.944 450.375Z" fill="#13375B"/>
<path d="M185.812 499.554C185.842 499.44 185.964 499.44 186.085 499.411C187.177 499.354 188.27 499.269 189.362 499.098C189.544 499.069 189.726 499.012 189.878 498.955C190.181 498.841 190.485 498.813 190.788 498.898C190.97 498.927 191.122 498.927 191.304 498.927C191.85 498.898 193.428 498.357 194.217 498.215C194.399 498.186 194.551 498.044 194.581 497.873C195.279 494.881 196.766 488.214 196.917 486.02C197.099 483.227 198.738 470.577 198.738 470.577L204.26 471.859C204.26 471.859 202.318 481.205 201.833 485.735C201.469 489.211 198.01 496.704 196.917 498.87C196.402 500.466 195.127 500.551 194.854 500.579C194.672 500.608 194.52 500.693 194.429 500.807C194.247 501.035 194.004 501.235 193.762 501.406C193.58 501.52 193.428 501.691 193.307 501.862C193.094 502.175 192.882 502.517 192.7 502.859C192.578 503.087 192.427 503.172 192.214 503.115C192.002 503.058 191.88 502.916 191.88 502.659C191.88 502.289 192.002 501.947 192.184 501.634C192.366 501.32 192.336 501.149 192.123 500.893C192.002 500.75 191.85 500.608 191.698 500.466C191.516 500.352 191.365 500.266 191.122 500.295C190.727 500.409 190.333 500.494 189.939 500.551L189.605 500.636L189.423 500.665C189.392 500.665 188.816 500.75 188.603 500.75C188.452 500.75 188.179 500.779 187.966 500.779C187.754 500.807 187.329 500.722 187.329 500.722C187.147 500.722 186.965 500.665 186.813 500.551C186.753 500.494 186.692 500.437 186.722 500.352C186.753 500.266 186.813 500.238 186.904 500.209C187.026 500.181 187.723 500.095 187.693 500.067C187.481 500.067 186.844 500.067 186.662 500.067C186.388 500.067 186.146 499.981 185.964 499.81C185.873 499.753 185.782 499.668 185.812 499.554Z" fill="#F7A491"/>
<path d="M195.036 478.184L203.046 481.831C203.046 481.831 204.29 476.303 205.231 472.884C206.05 469.949 202.045 464.707 200.71 465.419C197.767 467.015 195.036 478.184 195.036 478.184Z" fill="#5184CE"/>
<path d="M249.229 468.44L320.534 471.289C320.534 471.289 314.314 490.835 314.162 491.804C314.01 492.772 290.616 504.768 284.73 504.625C278.843 504.483 265.128 499.867 262.185 499.041C259.242 498.214 251.565 492.601 252.02 489.154C252.506 485.706 249.229 468.44 249.229 468.44Z" fill="#F7CC7F"/>
<path d="M269.739 478.356H250.593C250.107 478.356 249.743 477.986 249.743 477.558V476.02C249.743 475.564 250.138 475.222 250.593 475.222H269.739C270.225 475.222 270.589 475.592 270.589 476.02V477.558C270.619 477.986 270.225 478.356 269.739 478.356Z" fill="#EAB054"/>
<path d="M278.023 441.059L287.672 444.792L287.126 442.911L283.515 441.059C283.515 441.059 280.572 440.518 280.268 440.375C280.025 440.233 278.023 441.059 278.023 441.059Z" fill="#F7CC7F"/>
<path opacity="0.6" d="M324.083 464.935L248.651 458.866V463.596C248.651 466.274 250.836 468.497 253.628 468.582L320.442 471.118C321.99 471.175 323.477 470.52 324.357 469.295C325.115 468.269 325.449 466.816 324.083 464.935Z" fill="#C5DDF9"/>
<path opacity="0.7" d="M248.651 458.866V458.21L323.81 464.593L324.083 464.935L248.651 458.866Z" fill="#C5DDF9"/>
<path opacity="0.2" d="M266.038 469.067L272.895 469.352L278.539 461.288L271.864 460.747L266.038 469.067Z" fill="white"/>
<path opacity="0.2" d="M278.235 469.551L283.727 461.687L281.178 461.488L275.625 469.437L278.235 469.551Z" fill="white"/>
<path d="M146.487 468.696L232.63 469.494L233.389 495.137C233.389 495.137 223.315 508.871 222.101 508.728C220.888 508.586 195.157 504.711 192.851 504.853C190.545 504.996 170.367 495.707 169.426 495.878C168.486 496.078 162.174 492.886 162.174 492.886L151.919 486.105L141.754 476.275L146.487 468.696Z" fill="#F7CC7F"/>
<path d="M163.934 476.759H144.787C144.302 476.759 143.938 476.389 143.938 475.961V474.423C143.938 473.967 144.332 473.625 144.787 473.625H163.934C164.419 473.625 164.783 473.995 164.783 474.423V475.961C164.783 476.417 164.389 476.759 163.934 476.759Z" fill="#EAB054"/>
<path d="M176.678 450.09L173.704 450.632C173.704 450.632 173.977 451.686 175.312 451.486C176.89 451.23 176.678 450.09 176.678 450.09Z" fill="white"/>
<path d="M167.423 447.412C167.423 447.412 174.159 444.506 174.827 439.976C175.494 435.445 169.304 439.776 169.304 439.776L166.786 442.027L167.423 447.412Z" fill="#1A1A1A"/>
<path d="M251.109 467.87C251.109 467.87 252.353 468.668 253.931 468.639C253.931 468.639 251.837 469.238 251.777 469.209C251.716 469.152 250.654 468.354 250.684 468.354C250.684 468.297 251.109 467.87 251.109 467.87Z" fill="#F7CC7F"/>
<path d="M257.602 438.579L266.037 439.092C266.037 439.092 264.671 436.955 264.065 436.955C263.458 436.955 259.634 436.955 259.634 436.955L257.602 438.579Z" fill="#F7CC7F"/>
<path d="M550.91 555.804H2.09039C0.935171 555.804 -3.8147e-06 554.926 -3.8147e-06 553.841C-3.8147e-06 552.756 0.935171 551.878 2.09039 551.878H550.91C552.065 551.878 553 552.756 553 553.841C552.982 554.926 552.065 555.804 550.91 555.804Z" fill="#183658"/>
<path d="M476.371 237.487C476.371 115.41 125.136 166.084 125.136 25.6647" stroke="#75BF7A" stroke-width="4.04932" stroke-linecap="round" stroke-linejoin="round" stroke-dasharray="12.15 12.15"/>
<path d="M472.978 303.033C478.923 303.04 484.623 305.26 488.827 309.208C493.031 313.156 495.396 318.508 495.403 324.091C495.41 328.653 493.823 333.092 490.885 336.725C490.885 336.725 490.273 337.482 490.173 337.591L472.978 356.635L455.773 337.581C455.684 337.48 455.07 336.725 455.07 336.725L455.068 336.72C452.132 333.087 450.545 328.651 450.552 324.091C450.559 318.508 452.924 313.156 457.128 309.208C461.332 305.26 467.032 303.04 472.978 303.033ZM472.978 331.748C474.59 331.748 476.167 331.299 477.508 330.458C478.849 329.616 479.894 328.42 480.511 327.021C481.129 325.622 481.29 324.082 480.975 322.597C480.661 321.112 479.884 319.747 478.744 318.676C477.603 317.605 476.15 316.876 474.568 316.581C472.987 316.285 471.347 316.437 469.857 317.016C468.367 317.596 467.093 318.577 466.197 319.837C465.301 321.096 464.823 322.576 464.823 324.091C464.826 326.121 465.686 328.067 467.214 329.503C468.743 330.938 470.816 331.746 472.978 331.748Z" fill="#75BF7A"/>
<path d="M125.546 8.72644C131.491 8.73303 137.191 10.9537 141.395 14.9014C145.599 18.849 147.964 24.2013 147.971 29.7842C147.978 34.3465 146.391 38.785 143.453 42.4188C143.453 42.4188 142.842 43.1749 142.742 43.2841L125.546 62.3279L108.342 43.2745C108.252 43.173 107.638 42.4188 107.638 42.4188L107.636 42.413C104.7 38.7808 103.114 34.3444 103.121 29.7842C103.128 24.2013 105.492 18.849 109.696 14.9014C113.9 10.9537 119.6 8.73303 125.546 8.72644ZM125.546 37.4415C127.158 37.4415 128.735 36.9924 130.076 36.151C131.417 35.3096 132.462 34.1137 133.08 32.7145C133.697 31.3153 133.858 29.7757 133.544 28.2903C133.229 26.8049 132.452 25.4405 131.312 24.3696C130.171 23.2987 128.718 22.5694 127.137 22.2739C125.555 21.9785 123.915 22.1301 122.425 22.7097C120.935 23.2893 119.661 24.2707 118.765 25.53C117.869 26.7892 117.391 28.2697 117.391 29.7842C117.394 31.8142 118.254 33.7604 119.782 35.1959C121.311 36.6314 123.384 37.439 125.546 37.4415Z" fill="#75BF7A"/>
</svg>
