<svg width="117" height="85" viewBox="0 0 117 85" fill="none" xmlns="http://www.w3.org/2000/svg">
<rect y="42.4264" width="60" height="60" rx="30" transform="rotate(-45 0 42.4264)" fill="#75BF7A"/>
<path d="M24.192 26.4H14.688V20.592H40.032V26.4H30.528V54H24.192V26.4Z" fill="#F5F5F5"/>
<path d="M43 46.58H35.74C35.8467 47.38 36.14 47.9933 36.62 48.42C37.1133 48.8467 37.7667 49.06 38.58 49.06C39.18 49.06 39.8267 48.9533 40.52 48.74C41.2267 48.5133 41.88 48.2067 42.48 47.82H42.56V49.96C42.0267 50.3733 41.4133 50.6933 40.72 50.92C40.04 51.1333 39.32 51.24 38.56 51.24C37.4667 51.24 36.5133 51.02 35.7 50.58C34.8867 50.14 34.26 49.5067 33.82 48.68C33.38 47.8533 33.16 46.8867 33.16 45.78C33.16 44.7 33.3667 43.7467 33.78 42.92C34.2067 42.0933 34.8 41.4533 35.56 41C36.32 40.5467 37.2 40.32 38.2 40.32C39.1733 40.32 40.02 40.54 40.74 40.98C41.4733 41.42 42.0333 42.0533 42.42 42.88C42.8067 43.7067 43 44.6733 43 45.78V46.58ZM38.2 42.44C37.5733 42.44 37.0467 42.6467 36.62 43.06C36.2067 43.4733 35.9267 44.0467 35.78 44.78H40.28C40.1733 44.02 39.9467 43.44 39.6 43.04C39.2533 42.64 38.7867 42.44 38.2 42.44ZM55.9322 40.56L55.4922 42.86V51C55.4922 52.5867 55.0255 53.7933 54.0922 54.62C53.1589 55.46 51.8855 55.88 50.2722 55.88C49.4189 55.88 48.6522 55.7667 47.9722 55.54C47.2922 55.3133 46.6389 55.0067 46.0122 54.62V52.14C47.2655 53.1 48.6122 53.58 50.0522 53.58C51.9189 53.58 52.8522 52.72 52.8522 51V50.18C52.0255 50.6333 51.1189 50.86 50.1322 50.86C48.7322 50.86 47.6255 50.4 46.8122 49.48C46.0122 48.5467 45.6122 47.2667 45.6122 45.64C45.6122 43.9867 46.0322 42.6867 46.8722 41.74C47.7255 40.7933 48.8789 40.32 50.3322 40.32C50.7989 40.32 51.2455 40.3733 51.6722 40.48C52.0989 40.5733 52.6055 40.74 53.1922 40.98L53.2922 40.56H55.9322ZM50.2322 48.58C51.0722 48.58 51.9455 48.3133 52.8522 47.78V42.78C52.5055 42.6733 52.1589 42.6067 51.8122 42.58C51.4789 42.5533 51.0722 42.54 50.5922 42.54C49.8189 42.54 49.2589 42.7867 48.9122 43.28C48.5655 43.7733 48.3922 44.56 48.3922 45.64C48.3922 46.6667 48.5389 47.4133 48.8322 47.88C49.1255 48.3467 49.5922 48.58 50.2322 48.58ZM65.5545 51L65.2945 49.74C64.3479 50.74 63.2079 51.24 61.8745 51.24C60.8212 51.24 59.9612 50.9667 59.2945 50.42C58.6412 49.8733 58.3145 49.1533 58.3145 48.26C58.3145 47.1 58.7412 46.2 59.5945 45.56C60.4612 44.9067 61.7079 44.58 63.3345 44.58C63.9212 44.58 64.5079 44.6067 65.0945 44.66V44.28C65.0945 43.6933 64.9279 43.26 64.5945 42.98C64.2612 42.6867 63.7345 42.54 63.0145 42.54C62.3079 42.54 61.6479 42.66 61.0345 42.9C60.4345 43.1267 59.7812 43.5 59.0745 44.02V41.66C59.6879 41.1933 60.3279 40.8533 60.9945 40.64C61.6612 40.4267 62.3945 40.32 63.1945 40.32C64.6745 40.32 65.8012 40.64 66.5745 41.28C67.3612 41.9067 67.7545 42.8267 67.7545 44.04V48.68L68.1945 51H65.5545ZM60.9545 48.06C60.9545 48.8333 61.3945 49.22 62.2745 49.22C62.7812 49.22 63.2612 49.12 63.7145 48.92C64.1679 48.7067 64.6279 48.3733 65.0945 47.92V46.5H63.1745C62.4012 46.5 61.8345 46.6133 61.4745 46.84C61.1279 47.0667 60.9545 47.4733 60.9545 48.06Z" fill="white"/>
<path d="M81.02 54L78.18 48.7H75.7V54H73.06V40.08H78.08C79.88 40.08 81.2267 40.44 82.12 41.16C83.0133 41.88 83.46 42.9267 83.46 44.3C83.46 45.2733 83.24 46.1 82.8 46.78C82.36 47.46 81.7067 47.9667 80.84 48.3L83.92 54H81.02ZM75.7 46.38H78.1C78.98 46.38 79.6267 46.2267 80.04 45.92C80.4667 45.6133 80.68 45.0933 80.68 44.36C80.68 43.6533 80.4733 43.1533 80.06 42.86C79.6467 42.5667 78.9867 42.42 78.08 42.42H75.7V46.38ZM88.3039 42C87.8506 42 87.4639 41.8467 87.1439 41.54C86.8239 41.2333 86.6639 40.8333 86.6639 40.34C86.6639 39.8467 86.8239 39.4467 87.1439 39.14C87.4639 38.8333 87.8506 38.68 88.3039 38.68C88.7572 38.68 89.1439 38.8333 89.4639 39.14C89.7839 39.4467 89.9439 39.8467 89.9439 40.34C89.9439 40.8333 89.7839 41.2333 89.4639 41.54C89.1439 41.8467 88.7572 42 88.3039 42ZM89.6239 43.56V54H86.9839V43.58L89.6239 43.56ZM100.769 54L100.369 52.6C99.8894 53.12 99.3294 53.52 98.6894 53.8C98.0627 54.08 97.4027 54.22 96.7094 54.22C95.4827 54.22 94.5094 53.74 93.7894 52.78C93.0827 51.82 92.7294 50.5133 92.7294 48.86C92.7294 47.1133 93.136 45.7533 93.9494 44.78C94.776 43.8067 95.936 43.32 97.4294 43.32C98.3894 43.32 99.2827 43.5267 100.109 43.94V38.92H102.749V51.68L103.189 54H100.769ZM95.5094 48.82C95.5094 49.86 95.6694 50.66 95.9894 51.22C96.3094 51.78 96.7827 52.06 97.4094 52.06C98.2894 52.06 99.1894 51.62 100.109 50.74V45.8C99.336 45.6 98.6294 45.5 97.9894 45.5C97.136 45.5 96.5094 45.7733 96.1094 46.32C95.7094 46.8533 95.5094 47.6867 95.5094 48.82ZM115.902 49.58H108.642C108.749 50.38 109.042 50.9933 109.522 51.42C110.016 51.8467 110.669 52.06 111.482 52.06C112.082 52.06 112.729 51.9533 113.422 51.74C114.129 51.5133 114.782 51.2067 115.382 50.82H115.462V52.96C114.929 53.3733 114.316 53.6933 113.622 53.92C112.942 54.1333 112.222 54.24 111.462 54.24C110.369 54.24 109.416 54.02 108.602 53.58C107.789 53.14 107.162 52.5067 106.722 51.68C106.282 50.8533 106.062 49.8867 106.062 48.78C106.062 47.7 106.269 46.7467 106.682 45.92C107.109 45.0933 107.702 44.4533 108.462 44C109.222 43.5467 110.102 43.32 111.102 43.32C112.076 43.32 112.922 43.54 113.642 43.98C114.376 44.42 114.936 45.0533 115.322 45.88C115.709 46.7067 115.902 47.6733 115.902 48.78V49.58ZM111.102 45.44C110.476 45.44 109.949 45.6467 109.522 46.06C109.109 46.4733 108.829 47.0467 108.682 47.78H113.182C113.076 47.02 112.849 46.44 112.502 46.04C112.156 45.64 111.689 45.44 111.102 45.44Z" fill="#75BF7A"/>
<path fill-rule="evenodd" clip-rule="evenodd" d="M83.9039 28.0624C85.1229 26.7419 86.7762 26 88.5001 26C90.224 26 91.8772 26.7419 93.0962 28.0624C94.3152 29.383 95 31.1741 95 33.0416C95 34.9092 94.3152 36.7003 93.0962 38.0208L88.5001 43L83.9039 38.0208C83.3003 37.367 82.8215 36.5907 82.4948 35.7364C82.1681 34.882 82 33.9664 82 33.0416C82 32.1169 82.1681 31.2012 82.4948 30.3469C82.8215 29.4926 83.3003 28.7163 83.9039 28.0624ZM88.5001 35.0534C88.9926 35.0534 89.4649 34.8415 89.8132 34.4642C90.1614 34.0869 90.3571 33.5752 90.3571 33.0416C90.3571 32.5081 90.1614 31.9964 89.8132 31.6191C89.4649 31.2418 88.9926 31.0298 88.5001 31.0298C88.0076 31.0298 87.5352 31.2418 87.187 31.6191C86.8387 31.9964 86.643 32.5081 86.643 33.0416C86.643 33.5752 86.8387 34.0869 87.187 34.4642C87.5352 34.8415 88.0076 35.0534 88.5001 35.0534Z" fill="#CF2828"/>
</svg>
