<svg width="100" height="85" viewBox="0 0 100 85" fill="none" xmlns="http://www.w3.org/2000/svg">
<rect y="42.4264" width="60" height="60" rx="30" transform="rotate(-45 0 42.4264)" fill="#75BF7A"/>
<path d="M38.4 43.392H20.976C21.232 45.312 21.936 46.784 23.088 47.808C24.272 48.832 25.84 49.344 27.792 49.344C29.232 49.344 30.784 49.088 32.448 48.576C34.144 48.032 35.712 47.296 37.152 46.368H37.344V51.504C36.064 52.496 34.592 53.264 32.928 53.808C31.296 54.32 29.568 54.576 27.744 54.576C25.12 54.576 22.832 54.048 20.88 52.992C18.928 51.936 17.424 50.416 16.368 48.432C15.312 46.448 14.784 44.128 14.784 41.472C14.784 38.88 15.28 36.592 16.272 34.608C17.296 32.624 18.72 31.088 20.544 30C22.368 28.912 24.48 28.368 26.88 28.368C29.216 28.368 31.248 28.896 32.976 29.952C34.736 31.008 36.08 32.528 37.008 34.512C37.936 36.496 38.4 38.816 38.4 41.472V43.392ZM26.88 33.456C25.376 33.456 24.112 33.952 23.088 34.944C22.096 35.936 21.424 37.312 21.072 39.072H31.872C31.616 37.248 31.072 35.856 30.24 34.896C29.408 33.936 28.288 33.456 26.88 33.456Z" fill="#F5F5F5"/>
<path d="M46.16 51L45.9 49.74C44.9533 50.74 43.8133 51.24 42.48 51.24C41.4267 51.24 40.5667 50.9667 39.9 50.42C39.2467 49.8733 38.92 49.1533 38.92 48.26C38.92 47.1 39.3467 46.2 40.2 45.56C41.0667 44.9067 42.3133 44.58 43.94 44.58C44.5267 44.58 45.1133 44.6067 45.7 44.66V44.28C45.7 43.6933 45.5333 43.26 45.2 42.98C44.8667 42.6867 44.34 42.54 43.62 42.54C42.9133 42.54 42.2533 42.66 41.64 42.9C41.04 43.1267 40.3867 43.5 39.68 44.02V41.66C40.2933 41.1933 40.9333 40.8533 41.6 40.64C42.2667 40.4267 43 40.32 43.8 40.32C45.28 40.32 46.4067 40.64 47.18 41.28C47.9667 41.9067 48.36 42.8267 48.36 44.04V48.68L48.8 51H46.16ZM41.56 48.06C41.56 48.8333 42 49.22 42.88 49.22C43.3867 49.22 43.8667 49.12 44.32 48.92C44.7733 48.7067 45.2333 48.3733 45.7 47.92V46.5H43.78C43.0067 46.5 42.44 46.6133 42.08 46.84C41.7333 47.0667 41.56 47.4733 41.56 48.06ZM59.7616 48.96V51H50.8416V49.16L55.8816 42.6H51.2816V40.56H59.3416V42.4L54.3016 48.96H59.7616ZM72.0922 40.56L66.1122 55.64H63.6122L65.3122 51.34L61.0922 40.56H63.7722L66.6722 48.2L69.4522 40.56H72.0922Z" fill="white"/>
<path d="M72.58 47.1C72.58 45.62 72.86 44.3333 73.42 43.24C73.9933 42.1467 74.8133 41.3067 75.88 40.72C76.96 40.1333 78.2333 39.84 79.7 39.84C80.54 39.84 81.2933 39.9267 81.96 40.1C82.6267 40.2733 83.28 40.5133 83.92 40.82V43.28H83.84C83.3733 43 82.7933 42.7667 82.1 42.58C81.42 42.38 80.6867 42.28 79.9 42.28C76.8733 42.28 75.36 43.8733 75.36 47.06C75.36 48.62 75.72 49.8 76.44 50.6C77.16 51.4 78.2133 51.8 79.6 51.8C80.72 51.8 81.5533 51.5667 82.1 51.1V49H79.46V46.8H84.74V52.5C83.6733 53.1533 82.7533 53.6067 81.98 53.86C81.2067 54.1133 80.3867 54.24 79.52 54.24C78.0533 54.24 76.8 53.9467 75.76 53.36C74.72 52.7733 73.9267 51.9467 73.38 50.88C72.8467 49.8 72.58 48.54 72.58 47.1ZM93.5055 54.24C92.4521 54.24 91.5255 54.02 90.7255 53.58C89.9255 53.1267 89.3055 52.4867 88.8655 51.66C88.4388 50.8333 88.2255 49.8733 88.2255 48.78C88.2255 47.6867 88.4388 46.7267 88.8655 45.9C89.3055 45.0733 89.9255 44.44 90.7255 44C91.5255 43.5467 92.4521 43.32 93.5055 43.32C94.5588 43.32 95.4855 43.5467 96.2855 44C97.0855 44.44 97.6988 45.0733 98.1255 45.9C98.5655 46.7267 98.7855 47.6867 98.7855 48.78C98.7855 49.8733 98.5655 50.8333 98.1255 51.66C97.6988 52.4867 97.0855 53.1267 96.2855 53.58C95.4855 54.02 94.5588 54.24 93.5055 54.24ZM93.5055 52.06C94.2921 52.06 94.9055 51.78 95.3455 51.22C95.7855 50.6467 96.0055 49.8333 96.0055 48.78C96.0055 47.7133 95.7855 46.9 95.3455 46.34C94.9055 45.78 94.2921 45.5 93.5055 45.5C92.7188 45.5 92.1055 45.78 91.6655 46.34C91.2255 46.9 91.0055 47.7133 91.0055 48.78C91.0055 49.8333 91.2255 50.6467 91.6655 51.22C92.1055 51.78 92.7188 52.06 93.5055 52.06Z" fill="#75BF7A"/>
</svg>
