<svg width="500" height="200" viewBox="0 0 500 200" fill="none" xmlns="http://www.w3.org/2000/svg">
<rect width="500" height="200" rx="12.7333" fill="white"/>
<path d="M122.551 32.8548C123.292 31.583 125.129 31.583 125.87 32.8548L132.787 44.7304C133.058 45.1963 133.513 45.5267 134.04 45.6408L147.472 48.5494C148.91 48.8609 149.478 50.6083 148.497 51.7059L139.34 61.954C138.981 62.356 138.807 62.8906 138.862 63.427L140.246 77.1002C140.394 78.5646 138.908 79.6446 137.561 79.051L124.985 73.5092C124.491 73.2917 123.929 73.2917 123.436 73.5092L110.86 79.051C109.513 79.6446 108.026 78.5646 108.175 77.1002L109.559 63.427C109.613 62.8906 109.44 62.356 109.08 61.954L99.9236 51.7059C98.9429 50.6084 99.5107 48.8609 100.949 48.5494L114.381 45.6408C114.908 45.5267 115.363 45.1963 115.634 44.7304L122.551 32.8548Z" fill="url(#paint0_linear_999_2782)"/>
<path d="M118.117 76.0965L121.399 74.3551L125.279 72.6452L128.385 71.2766C128.878 71.0591 129.44 71.0591 129.934 71.2766L141.663 76.4454C143.01 77.0389 144.497 75.9589 144.348 74.4945L143.057 61.7418C143.003 61.2054 143.176 60.6708 143.536 60.2688L152.076 50.7106C153.057 49.613 152.489 47.8656 151.051 47.5541L138.523 44.8413C137.996 44.7272 137.541 44.3968 137.27 43.9309L130.819 32.8548C130.078 31.5829 128.241 31.5829 127.5 32.8548L121.049 43.9309C120.777 44.3968 120.322 44.7272 119.795 44.8413L107.268 47.5541C105.829 47.8656 105.262 49.613 106.242 50.7106L114.783 60.2688C115.142 60.6708 115.316 61.2054 115.261 61.7418L114.492 69.3374" stroke="black" stroke-width="4.80114" stroke-linecap="round"/>
<path d="M183.045 32.8548C183.786 31.583 185.623 31.583 186.364 32.8548L193.281 44.7304C193.552 45.1963 194.007 45.5267 194.534 45.6408L207.966 48.5494C209.404 48.8609 209.972 50.6083 208.991 51.7059L199.834 61.954C199.475 62.356 199.301 62.8906 199.356 63.427L200.74 77.1002C200.888 78.5646 199.402 79.6446 198.055 79.051L185.479 73.5092C184.986 73.2917 184.423 73.2917 183.93 73.5092L171.354 79.051C170.007 79.6446 168.521 78.5646 168.669 77.1002L170.053 63.427C170.108 62.8906 169.934 62.356 169.575 61.954L160.418 51.7059C159.437 50.6084 160.005 48.8609 161.443 48.5494L174.875 45.6408C175.402 45.5267 175.857 45.1963 176.128 44.7304L183.045 32.8548Z" fill="url(#paint1_linear_999_2782)"/>
<path d="M178.611 76.0965L181.893 74.3551L185.773 72.6452L188.879 71.2766C189.372 71.0591 189.934 71.0591 190.428 71.2766L202.157 76.4454C203.504 77.0389 204.991 75.9589 204.842 74.4945L203.551 61.7418C203.497 61.2054 203.671 60.6708 204.03 60.2688L212.57 50.7106C213.551 49.613 212.983 47.8656 211.545 47.5541L199.017 44.8413C198.49 44.7272 198.035 44.3968 197.764 43.9309L191.313 32.8548C190.572 31.5829 188.735 31.5829 187.994 32.8548L181.543 43.9309C181.271 44.3968 180.817 44.7272 180.29 44.8413L167.762 47.5541C166.324 47.8656 165.756 49.613 166.736 50.7106L175.277 60.2688C175.636 60.6708 175.81 61.2054 175.756 61.7418L174.986 69.3374" stroke="black" stroke-width="4.80114" stroke-linecap="round"/>
<path d="M243.54 32.8548C244.28 31.583 246.118 31.583 246.859 32.8548L253.775 44.7304C254.047 45.1963 254.502 45.5267 255.029 45.6408L268.46 48.5494C269.899 48.8609 270.467 50.6083 269.486 51.7059L260.329 61.954C259.97 62.356 259.796 62.8906 259.85 63.427L261.235 77.1002C261.383 78.5646 259.897 79.6446 258.55 79.051L245.974 73.5092C245.48 73.2917 244.918 73.2917 244.425 73.5092L231.849 79.051C230.502 79.6446 229.015 78.5646 229.163 77.1002L230.548 63.427C230.602 62.8906 230.428 62.356 230.069 61.954L220.912 51.7059C219.932 50.6084 220.499 48.8609 221.938 48.5494L235.37 45.6408C235.897 45.5267 236.351 45.1963 236.623 44.7304L243.54 32.8548Z" fill="url(#paint2_linear_999_2782)"/>
<path d="M239.105 76.0965L242.387 74.3551L246.268 72.6452L249.374 71.2766C249.867 71.0591 250.429 71.0591 250.922 71.2766L262.652 76.4454C263.999 77.0389 265.485 75.9589 265.337 74.4945L264.046 61.7418C263.992 61.2054 264.165 60.6708 264.524 60.2688L273.065 50.7106C274.046 49.613 273.478 47.8656 272.039 47.5541L259.512 44.8413C258.985 44.7272 258.53 44.3968 258.259 43.9309L251.808 32.8548C251.067 31.5829 249.229 31.5829 248.489 32.8548L242.037 43.9309C241.766 44.3968 241.311 44.7272 240.784 44.8413L228.257 47.5541C226.818 47.8656 226.25 49.613 227.231 50.7106L235.772 60.2688C236.131 60.6708 236.304 61.2054 236.25 61.7418L235.481 69.3374" stroke="black" stroke-width="4.80114" stroke-linecap="round"/>
<path d="M304.034 32.8548C304.775 31.583 306.612 31.583 307.353 32.8548L314.27 44.7304C314.541 45.1963 314.996 45.5267 315.523 45.6408L328.954 48.5494C330.393 48.8609 330.961 50.6083 329.98 51.7059L320.823 61.954C320.464 62.356 320.29 62.8906 320.345 63.427L321.729 77.1002C321.877 78.5646 320.391 79.6446 319.044 79.051L306.468 73.5092C305.974 73.2917 305.412 73.2917 304.919 73.5092L292.343 79.051C290.996 79.6446 289.509 78.5646 289.658 77.1002L291.042 63.427C291.096 62.8906 290.923 62.356 290.563 61.954L281.406 51.7059C280.426 50.6084 280.994 48.8609 282.432 48.5494L295.864 45.6408C296.391 45.5267 296.846 45.1963 297.117 44.7304L304.034 32.8548Z" fill="url(#paint3_linear_999_2782)"/>
<path d="M299.6 76.0965L302.882 74.3551L306.762 72.6452L309.868 71.2766C310.361 71.0591 310.923 71.0591 311.417 71.2766L323.146 76.4454C324.493 77.0389 325.979 75.9589 325.831 74.4945L324.54 61.7418C324.486 61.2054 324.659 60.6708 325.019 60.2688L333.559 50.7106C334.54 49.613 333.972 47.8656 332.533 47.5541L320.006 44.8413C319.479 44.7272 319.024 44.3968 318.753 43.9309L312.302 32.8548C311.561 31.5829 309.723 31.5829 308.983 32.8548L302.531 43.9309C302.26 44.3968 301.805 44.7272 301.278 44.8413L288.751 47.5541C287.312 47.8656 286.745 49.613 287.725 50.7106L296.266 60.2688C296.625 60.6708 296.799 61.2054 296.744 61.7418L295.975 69.3374" stroke="black" stroke-width="4.80114" stroke-linecap="round"/>
<path d="M364.528 32.8548C365.269 31.583 367.107 31.583 367.847 32.8548L374.764 44.7304C375.036 45.1963 375.49 45.5267 376.017 45.6408L389.449 48.5494C390.888 48.8609 391.455 50.6083 390.475 51.7059L381.318 61.954C380.959 62.356 380.785 62.8906 380.839 63.427L382.224 77.1002C382.372 78.5646 380.885 79.6446 379.538 79.051L366.962 73.5092C366.469 73.2917 365.907 73.2917 365.413 73.5092L352.837 79.051C351.49 79.6446 350.004 78.5646 350.152 77.1002L351.537 63.427C351.591 62.8906 351.417 62.356 351.058 61.954L341.901 51.7059C340.92 50.6084 341.488 48.8609 342.927 48.5494L356.358 45.6408C356.885 45.5267 357.34 45.1963 357.612 44.7304L364.528 32.8548Z" fill="url(#paint4_linear_999_2782)"/>
<path d="M360.094 76.0965L363.376 74.3551L367.256 72.6452L370.362 71.2766C370.856 71.0591 371.418 71.0591 371.911 71.2766L383.641 76.4454C384.988 77.0389 386.474 75.9589 386.326 74.4945L385.035 61.7418C384.98 61.2054 385.154 60.6708 385.513 60.2688L394.054 50.7106C395.034 49.613 394.467 47.8656 393.028 47.5541L380.501 44.8413C379.974 44.7272 379.519 44.3968 379.248 43.9309L372.796 32.8548C372.055 31.5829 370.218 31.5829 369.477 32.8548L363.026 43.9309C362.755 44.3968 362.3 44.7272 361.773 44.8413L349.245 47.5541C347.807 47.8656 347.239 49.613 348.22 50.7106L356.76 60.2688C357.12 60.6708 357.293 61.2054 357.239 61.7418L356.47 69.3374" stroke="black" stroke-width="4.80114" stroke-linecap="round"/>
<rect width="130" height="100" transform="translate(190 86)" fill="white"/>
<path d="M249.262 108.786L236.596 108.818C225.514 108.818 224.616 112.623 219.709 119.373C215.487 125.178 210.737 125.705 210.737 125.705L208.098 126.233C199.127 127.289 199.655 136.788 199.655 136.788V138.371C199.655 152.092 218.125 153.2 218.125 153.2H269.838C269.838 153.2 289.892 152.092 289.892 138.371V136.788C289.892 136.788 290.419 127.289 281.448 126.233L277.226 125.705C277.226 125.705 272.476 125.178 268.255 119.373C263.347 112.623 262.45 108.818 251.367 108.818L238.702 108.786" fill="url(#paint5_linear_999_2782)"/>
<path d="M304.667 129.4L308.361 127.817" stroke="#FFF3CC" stroke-width="6.23186" stroke-miterlimit="10" stroke-linecap="round"/>
<path d="M304.14 144.176L307.306 145.759" stroke="#FFF3CC" stroke-width="6.23186" stroke-miterlimit="10" stroke-linecap="round"/>
<path d="M305.195 136.789H311" stroke="#FFF3CC" stroke-width="6.23186" stroke-miterlimit="10" stroke-linecap="round"/>
<path d="M256.121 108.786L243.456 108.818C232.373 108.818 231.476 112.623 226.568 119.372C222.347 125.177 217.597 125.705 217.597 125.705L214.958 126.233C205.987 127.288 206.515 136.787 206.515 136.787V138.371C206.515 152.092 224.985 153.2 224.985 153.2H276.698C276.698 153.2 296.751 152.092 296.751 138.371V136.787C296.751 136.787 297.279 127.288 288.308 126.233L284.086 125.705C284.086 125.705 279.336 125.177 275.114 119.372C270.207 112.623 269.309 108.818 258.227 108.818L245.561 108.786" stroke="black" stroke-width="5" stroke-miterlimit="10"/>
<path d="M228.147 163.702C232.811 163.702 236.591 159.922 236.591 155.258C236.591 150.595 232.811 146.815 228.147 146.815C223.484 146.815 219.704 150.595 219.704 155.258C219.704 159.922 223.484 163.702 228.147 163.702Z" fill="white" stroke="black" stroke-width="5" stroke-miterlimit="10"/>
<path d="M276.698 163.702C281.361 163.702 285.142 159.922 285.142 155.258C285.142 150.595 281.361 146.815 276.698 146.815C272.035 146.815 268.254 150.595 268.254 155.258C268.254 159.922 272.035 163.702 276.698 163.702Z" fill="white" stroke="black" stroke-width="5" stroke-miterlimit="10"/>
<path d="M268.044 126.315L288.211 126.315" stroke="black" stroke-width="5" stroke-miterlimit="10" stroke-linecap="round"/>
<defs>
<linearGradient id="paint0_linear_999_2782" x1="118.033" y1="69.9324" x2="148.642" y2="35.4091" gradientUnits="userSpaceOnUse">
<stop offset="0.0109262" stop-color="#FFD997"/>
<stop offset="0.98157" stop-color="#FFF6D5"/>
</linearGradient>
<linearGradient id="paint1_linear_999_2782" x1="178.528" y1="69.9324" x2="209.136" y2="35.4091" gradientUnits="userSpaceOnUse">
<stop offset="0.0109262" stop-color="#FFD997"/>
<stop offset="0.98157" stop-color="#FFF6D5"/>
</linearGradient>
<linearGradient id="paint2_linear_999_2782" x1="239.022" y1="69.9324" x2="269.63" y2="35.4091" gradientUnits="userSpaceOnUse">
<stop offset="0.0109262" stop-color="#FFD997"/>
<stop offset="0.98157" stop-color="#FFF6D5"/>
</linearGradient>
<linearGradient id="paint3_linear_999_2782" x1="299.516" y1="69.9324" x2="330.125" y2="35.4091" gradientUnits="userSpaceOnUse">
<stop offset="0.0109262" stop-color="#FFD997"/>
<stop offset="0.98157" stop-color="#FFF6D5"/>
</linearGradient>
<linearGradient id="paint4_linear_999_2782" x1="360.011" y1="69.9324" x2="390.619" y2="35.4091" gradientUnits="userSpaceOnUse">
<stop offset="0.0109262" stop-color="#FFD997"/>
<stop offset="0.98157" stop-color="#FFF6D5"/>
</linearGradient>
<linearGradient id="paint5_linear_999_2782" x1="277.752" y1="162.305" x2="242.509" y2="92.2012" gradientUnits="userSpaceOnUse">
<stop offset="0.0120564" stop-color="#92D3FF"/>
<stop offset="1" stop-color="#CDF0FF"/>
</linearGradient>
</defs>
</svg>
